<svg width="108" height="63" viewBox="0 0 108 63" fill="none" xmlns="http://www.w3.org/2000/svg">
<g clip-path="url(#clip0_8738_11435)">
<path d="M29 22.7608L35.0397 22.7754L35.0341 53.0582L41.9388 53.0157V16.1435L34.0952 16.1453L29 22.7608ZM60.1534 16.2348C67.6415 15.2854 74.6491 18.9552 78.3174 25.0242L78.765 24.4462C78.8462 24.5983 78.9245 24.752 79 24.9069L73.3478 32.21C73.2939 32.0286 73.236 31.8487 73.1737 31.6704L73.4906 31.2609C71.9023 25.9774 66.688 22.4584 61.0331 23.1754C54.7316 23.9743 50.271 29.7302 51.0699 36.0318C51.7928 41.7335 56.5743 45.9279 62.146 46.0827L57.299 52.3455C50.4465 50.3429 45.0845 44.446 44.1293 36.9117C42.8444 26.777 50.0186 17.5197 60.1534 16.2348V16.2348ZM56.8799 52.8872L62.5461 45.566C62.7352 45.581 62.9243 45.5918 63.1131 45.5979L57.3898 52.9927C57.219 52.9606 57.0491 52.9256 56.8799 52.8872Z" fill="white"/>
<path d="M58.0121 33.1186H59.6387V36.683H60.7188V32.1719H57.0972L56.843 34.7261C56.7731 35.4059 56.6397 35.6601 56.1759 35.6601H56.0742V36.7402H56.1949C57.4149 36.7402 57.7135 36.0984 57.8469 34.8087L58.0121 33.1186H58.0121ZM61.8116 36.683H65.8335V35.749H62.8918V34.7833H64.4992V33.8747H62.8918V33.0614H65.5857V32.1719H61.8116V36.683L61.8116 36.683ZM66.2211 33.1122H67.9302V36.683H69.004V33.1122H70.7132V32.1719H66.2211V33.1122H66.2211Z" fill="#59E9FF"/>
<path d="M56.0898 40.6225H56.6692V38.7075H58.1923V38.2031H56.0898V40.6225ZM60.213 40.6225H60.8264L59.7701 38.2031H59.1771L58.1174 40.6225H58.7001L58.8807 40.2034H60.0324L60.213 40.6225ZM59.0885 39.7195L59.4565 38.8665L59.8246 39.7195H59.0885ZM61.1774 40.6225H61.7533V39.7706H62.5915C63.1402 39.7706 63.4605 39.4878 63.4605 38.9835C63.4605 38.4757 63.1402 38.2031 62.5915 38.2031H61.1774V40.6225ZM62.537 38.7075C62.7585 38.7075 62.8675 38.7995 62.8675 38.9869C62.8675 39.1607 62.7585 39.2663 62.537 39.2663H61.7533V38.7074H62.537V38.7075ZM65.5016 40.6225H66.115L65.0587 38.2031H64.4657L63.406 40.6225H63.9887L64.1693 40.2034H65.3211L65.5017 40.6225H65.5016ZM64.3771 39.7195L64.7452 38.8665L65.1132 39.7195H64.3771ZM68.2277 40.6225H68.8036V38.2031H68.2277V39.1539H67.0453V38.2031H66.466V40.6225H67.0453V39.665H68.2277V40.6225ZM69.2193 38.7075H70.136V40.6225H70.7118V38.7075H71.6285V38.2031H69.2193V38.7075H69.2193ZM72.0408 40.6225H72.6201L73.8332 38.9937V40.6225H74.4125V38.2031H73.8332L72.6201 39.832V38.2031H72.0408V40.6225ZM74.9986 40.6225H75.5779L76.7909 38.9937V40.6225H77.3703V38.2031H76.7909L75.5779 39.832V38.2031H74.9986V40.6225Z" fill="#59E9FF"/>
<path d="M36.1191 12.7662H36.7684V10.0383H36.1191V11.1102H34.786V10.0383H34.1328V12.7662H34.786V11.6866H36.1191V12.7662ZM39.5347 12.7662H40.2263L39.0352 10.0345H38.3667L37.1718 12.7662H37.8288L38.0325 12.2936H39.3311L39.5347 12.7662ZM38.2668 11.748L38.6818 10.7837L39.0967 11.748H38.2668H38.2668ZM41.5902 12.7662H42.2433V11.5405L43.5112 12.7662H44.4025L42.9541 11.3523L44.3411 10.0383H43.492L42.2433 11.2178V10.0383H41.5902V12.7662ZM45.8625 12.8123C46.677 12.8123 47.3071 12.2321 47.3071 11.4022C47.3071 10.5608 46.677 9.99219 45.8625 9.99219C45.0442 9.99219 44.4141 10.5608 44.4141 11.4022C44.4141 12.2321 45.0442 12.8123 45.8625 12.8123ZM45.8625 12.2283C45.3861 12.2283 45.0787 11.8671 45.0787 11.4022C45.0787 10.9412 45.3861 10.5762 45.8625 10.5762C46.3428 10.5762 46.6425 10.945 46.6425 11.4022C46.6425 11.8633 46.3428 12.2283 45.8625 12.2283ZM48.794 10.0383H47.8373V12.7662H48.4367V10.7184L49.2243 12.77H49.6623L50.4615 10.703V12.7662H51.0916V10.0383H50.1772L49.4856 11.798L48.794 10.0383H48.794ZM51.7562 12.7662H52.4093V10.6108H53.7003V12.7662H54.3534V10.0383H51.7562V12.7662H51.7562ZM55.0181 12.7662H55.6674V11.8057H56.6125C57.2311 11.8057 57.5923 11.4868 57.5923 10.9182C57.5923 10.3457 57.2311 10.0383 56.6125 10.0383H55.0181V12.7662V12.7662ZM56.5511 10.6069C56.8008 10.6069 56.9238 10.7107 56.9238 10.922C56.9238 11.1179 56.8008 11.237 56.5511 11.237H55.6674V10.6069H56.5511V10.6069ZM58.0994 12.7662H60.5314V12.2014H58.7526V11.6174H59.7246V11.068H58.7526V10.5762H60.3816V10.0383H58.0994V12.7662ZM62.172 12.8123C63.0902 12.8123 63.4129 12.163 63.4629 11.8902H62.8021C62.7406 11.9939 62.5754 12.2244 62.172 12.2244C61.7186 12.2244 61.442 11.8517 61.442 11.4022C61.442 10.9527 61.7186 10.58 62.172 10.58C62.5485 10.58 62.7367 10.8105 62.7982 10.9143H63.4629C63.4014 10.6031 63.0556 9.99219 62.172 9.99219C61.3536 9.99219 60.7735 10.5877 60.7735 11.4022C60.7735 12.2167 61.3536 12.8123 62.172 12.8123ZM65.1995 12.8123C66.1177 12.8123 66.4405 12.163 66.4904 11.8902H65.8296C65.7681 11.9939 65.6029 12.2244 65.1995 12.2244C64.7461 12.2244 64.4695 11.8517 64.4695 11.4022C64.4695 10.9527 64.7461 10.58 65.1995 10.58C65.576 10.58 65.7643 10.8105 65.8257 10.9143H66.4904C66.4289 10.6031 66.0831 9.99219 65.1995 9.99219C64.3811 9.99219 63.801 10.5877 63.801 11.4022C63.801 12.2167 64.3811 12.8123 65.1995 12.8123ZM68.277 12.8123C69.0915 12.8123 69.7216 12.2321 69.7216 11.4022C69.7216 10.5608 69.0915 9.99219 68.277 9.99219C67.4586 9.99219 66.8285 10.5608 66.8285 11.4022C66.8285 12.2321 67.4586 12.8123 68.277 12.8123ZM68.277 12.2283C67.8006 12.2283 67.4932 11.8671 67.4932 11.4022C67.4932 10.9412 67.8006 10.5762 68.277 10.5762C68.7572 10.5762 69.0569 10.945 69.0569 11.4022C69.0569 11.8633 68.7572 12.2283 68.277 12.2283ZM70.2518 12.7662H70.9011V11.8057H71.8462C72.4648 11.8057 72.8259 11.4868 72.8259 10.9182C72.8259 10.3457 72.4648 10.0383 71.8462 10.0383H70.2518V12.7662V12.7662ZM71.7848 10.6069C72.0345 10.6069 72.1574 10.7107 72.1574 10.922C72.1574 11.1179 72.0345 11.237 71.7848 11.237H70.9011V10.6069H71.7848V10.6069Z" fill="white"/>
</g>
<defs>
<clipPath id="clip0_8738_11435">
<rect width="50" height="43.0637" fill="white" transform="translate(29 10)"/>
</clipPath>
</defs>
</svg>
