<svg width="108" height="63" viewBox="0 0 108 63" fill="none" xmlns="http://www.w3.org/2000/svg">
<path d="M72.8702 33.9414H61.2114C60.745 33.9414 60.2985 34.3518 60.3203 34.834C60.3421 35.318 60.712 35.7267 61.2114 35.7267C62.5231 35.7267 63.8342 35.7267 65.1459 35.7267C67.2376 35.7267 69.3298 35.7267 71.422 35.7267C71.905 35.7267 71.8061 35.7267 72.2891 35.7267C72.5226 36.2778 72.5696 36.3867 72.8037 36.9379C73.3702 38.2697 73.936 39.601 74.5019 40.9323C75.1842 42.5356 75.8659 44.1395 76.5476 45.7428C77.1376 47.1294 77.727 48.516 78.317 49.9027C78.417 50.1382 78.514 50.3755 78.6111 50.6139C78.4428 50.6151 78.274 50.6163 78.1058 50.6163H75.3254C73.6578 50.6163 71.9897 50.6163 70.3215 50.6163C68.2793 50.6163 66.2365 50.6163 64.1942 50.6163C61.9732 50.6163 59.7527 50.6163 57.5322 50.6163C55.2741 50.6163 53.0166 50.6163 50.7585 50.6163C48.6604 50.6163 41.459 50.6163 39.3615 50.6163C37.588 50.6163 35.8152 50.6163 34.0418 50.6163C32.7618 50.6163 31.4825 50.6163 30.2031 50.6163H30.1749C30.0067 50.6163 29.8385 50.6151 29.6696 50.6139C29.7667 50.3755 29.8638 50.1382 29.9637 49.9027C30.5537 48.516 31.1431 47.1294 31.7325 45.7428C32.4148 44.1395 33.0965 42.5356 33.7782 40.9323C34.3447 39.601 34.9105 38.2697 35.4764 36.9379C35.7111 36.3867 35.7575 36.2778 35.9917 35.7267C35.7346 35.8745 36.2481 35.5795 35.9917 35.7267C36.474 35.7267 36.3752 35.7267 36.8581 35.7267C38.9503 35.7267 41.042 35.7267 43.1342 35.7267C44.4453 35.7267 45.757 35.7267 47.0681 35.7267C47.5681 35.7267 47.9386 35.318 47.9598 34.834C47.9816 34.3518 47.5345 33.9414 47.0681 33.9414H35.4099C35.127 33.9414 34.7588 34.1051 34.6394 34.3836C34.6353 34.3937 34.6317 34.4037 34.627 34.4131C34.3029 35.0678 34.05 35.769 33.7647 36.4415C33.1753 37.8281 32.5854 39.2142 31.996 40.6008L31.6072 41.5134C31.5642 41.5629 31.5278 41.6194 31.5007 41.6836C30.9119 43.0673 28.3903 49.0713 27.8021 50.455C27.7168 50.6563 27.6309 50.8577 27.5451 51.0585C27.4157 51.3623 27.3686 51.6579 27.5451 51.9594C27.7039 52.2308 28.0003 52.4016 28.3144 52.4016H28.3185H28.3356H28.3932H28.3956C28.9797 52.4104 29.5649 52.4022 30.1484 52.4016H32.9506C34.6188 52.4016 36.2863 52.4016 37.9545 52.4016C39.9967 52.4016 47.1434 52.4016 49.1856 52.4016C51.4061 52.4016 53.6271 52.4016 55.8482 52.4016C58.1063 52.4016 60.3644 52.4016 62.6219 52.4016C64.7201 52.4016 66.8176 52.4016 68.9163 52.4016C70.6891 52.4016 72.462 52.4016 74.2354 52.4016C75.5153 52.4016 76.7947 52.4016 78.0746 52.4016H78.1305C78.7146 52.4022 79.2998 52.4104 79.8839 52.4016H79.8863H79.9439H79.961H79.9645C80.2792 52.4016 80.5757 52.2314 80.7345 51.9594C80.9109 51.6573 80.8633 51.3623 80.7345 51.0585C80.6492 50.8577 80.5633 50.6563 80.478 50.455C79.8892 49.0713 77.3676 43.0678 76.7788 41.6842C76.7512 41.62 76.7153 41.5629 76.6718 41.5134L76.2841 40.6008C75.6942 39.2142 75.1048 37.8281 74.5148 36.4415C74.2295 35.769 73.9766 35.0684 73.6525 34.4131C73.6478 34.4037 73.6443 34.3937 73.6402 34.3836C73.5213 34.1051 73.1531 33.9414 72.8702 33.9414Z" fill="#59E9FF"/>
<path d="M79.966 55.3076C63.0951 55.3076 46.219 55.2658 29.3494 55.3094C28.9464 55.3111 28.5423 55.3135 28.14 55.3076L28.0235 55.3064C27.7677 55.2952 27.5195 55.1798 27.3371 55.0014C27.1524 54.8206 27.0312 54.5751 27.0312 54.3078C27.0336 54.2984 27.033 54.2795 27.033 54.2689C27.0454 53.9869 27.1624 53.726 27.3495 53.5388C27.5324 53.3563 27.7806 53.242 28.0647 53.242C44.9356 53.242 61.8111 53.2797 78.6813 53.2403C79.0843 53.2385 79.4884 53.2362 79.8907 53.242L80.0089 53.2433C80.2648 53.2544 80.5118 53.371 80.6942 53.5482C80.8789 53.7284 80.9989 53.9739 80.9989 54.2407C80.9971 54.2507 80.9977 54.2695 80.9977 54.2807C80.9853 54.5634 80.8683 54.8241 80.6812 55.0114C80.4989 55.1933 80.2501 55.3076 79.9666 55.3076H79.966Z" fill="#59E9FF"/>
<path d="M79.9654 57.9346C79.549 57.9346 79.132 57.9346 78.7149 57.9346C77.5862 57.9346 76.4574 57.9346 75.3286 57.9346C73.6605 57.9346 71.9924 57.9346 70.3248 57.9346C68.2826 57.9346 66.2403 57.9346 64.1975 57.9346C61.9764 57.9346 59.756 57.9346 57.5355 57.9346C55.2774 57.9346 53.0193 57.9346 50.7618 57.9346C48.6636 57.9346 46.5661 57.9346 44.468 57.9346C42.6952 57.9346 40.9223 57.9346 39.1489 57.9346C37.8689 57.9346 31.0611 57.9346 29.7812 57.9346C29.1777 57.9346 28.5742 57.9428 27.9707 57.9346C27.9454 57.9334 27.9195 57.9346 27.893 57.9346C27.4266 57.9346 26.9795 57.5236 27.0007 57.0414C27.0225 56.5574 27.3931 56.1487 27.893 56.1487C28.3101 56.1487 28.7265 56.1487 29.143 56.1487C30.2717 56.1487 36.9296 56.1487 38.0578 56.1487C39.7259 56.1487 41.394 56.1487 43.0616 56.1487C45.1038 56.1487 47.1467 56.1487 49.1895 56.1487C51.41 56.1487 53.631 56.1487 55.8515 56.1487C58.1096 56.1487 60.3671 56.1487 62.6252 56.1487C64.7233 56.1487 66.8209 56.1487 68.919 56.1487C70.6924 56.1487 72.4653 56.1487 74.2387 56.1487C75.5175 56.1487 76.7974 56.1487 78.0773 56.1487C78.6802 56.1487 79.2843 56.1393 79.8872 56.1487C79.9131 56.1493 79.939 56.1487 79.9649 56.1487C80.4313 56.1487 80.8783 56.5591 80.8566 57.0414C80.8354 57.5248 80.4648 57.9346 79.9649 57.9346H79.9654Z" fill="#59E9FF"/>
<path fill-rule="evenodd" clip-rule="evenodd" d="M54.0065 8.86492C56.2623 8.86492 58.091 10.6955 58.091 12.9542C58.091 15.2122 56.2623 17.0428 54.0065 17.0428C51.7507 17.0428 49.9214 15.2122 49.9214 12.9542C49.9214 10.6955 51.7502 8.86492 54.0065 8.86492ZM48.0962 24.1391H46.3393L43.7388 25.6752V27.8444L45.7534 26.7186V32.4995H48.0957V24.1391H48.0962ZM49.8538 29.0285H51.9743C52.0325 28.876 52.2901 28.4891 52.876 28.4891C53.5318 28.4891 53.9183 28.9113 53.9183 29.5331C53.9183 30.1072 53.4965 30.5764 52.876 30.5764C52.1966 30.5764 51.8678 30.0842 51.8331 29.8021H49.455C49.455 31.0687 50.4273 32.6396 52.876 32.6396C55.0776 32.6396 56.2846 31.2794 56.2846 29.4977C56.2846 27.7272 55.1247 26.6362 53.6018 26.6362C52.8054 26.6362 52.2784 26.9647 52.0443 27.2461V26.0497H55.9682V24.1738H49.8538V29.0279V29.0285ZM60.9349 24.0101C58.838 24.0101 57.5963 25.2413 57.5963 27.1643V29.5089C57.5963 31.432 58.838 32.6638 60.9349 32.6638C63.0319 32.6638 64.2736 31.432 64.2736 29.5089V27.1643C64.2736 25.2413 63.0319 24.0101 60.9349 24.0101ZM60.9349 30.5535C60.2673 30.5535 59.9391 30.0959 59.9391 29.4394V27.235C59.9391 26.5785 60.2673 26.1215 60.9349 26.1215C61.6026 26.1215 61.9308 26.5785 61.9308 27.235V29.4394C61.9308 30.0959 61.6026 30.5535 60.9349 30.5535ZM59.7762 37.7704H56.6958V39.0534H58.228V39.75C58.111 39.8047 57.791 39.8907 57.314 39.8907C56.2428 39.8907 55.7188 39.21 55.7188 38.318C55.7188 37.4648 56.227 36.8307 57.0163 36.8307C57.5716 36.8307 57.8451 37.0344 57.9628 37.1592H59.6585C59.5338 36.5257 58.8145 35.4535 57.0163 35.4535C55.2888 35.4535 54.1006 36.6352 54.1006 38.318C54.1006 40.0944 55.32 41.2443 57.2746 41.2443C58.6268 41.2443 59.5262 40.7121 59.7762 40.5013V37.7698V37.7704ZM52.0601 41.1354H54.2253L51.559 38.232L54.1077 35.5789H52.0596L49.8391 37.8952V35.5789H48.2362V41.1354H49.8391V38.709L52.0596 41.1354H52.0601ZM71.4908 42.0063L68.044 21.0578C67.7769 19.4345 66.1999 18.2304 64.3406 18.2304H59.6932C60.9761 16.8456 61.7608 14.9908 61.7608 12.9536C61.7608 8.66652 58.2892 5.19141 54.0071 5.19141C49.7244 5.19141 46.2528 8.66652 46.2528 12.9536C46.2528 14.9908 47.0375 16.8456 48.3209 18.2304H43.673C41.8142 18.2304 40.2367 19.4345 39.9702 21.0578L36.5234 42.0063C36.2004 43.9688 37.925 45.7275 40.1726 45.7275H67.8428C70.0897 45.7275 71.8143 43.9688 71.492 42.0063H71.4908Z" fill="#FEFEFE"/>
</svg>
