<svg width="108" height="63" viewBox="0 0 108 63" fill="none" xmlns="http://www.w3.org/2000/svg">
<path d="M56.8955 36.6854V35.3555H54.7031V36.6854H56.8955Z" fill="#FEFEFE"/>
<path d="M50.3125 56.5893V35.3555H52.5049V56.5893H50.3125Z" fill="#FEFEFE"/>
<path d="M46.3047 52.6708V35.3555H48.4971V52.6708H46.3047Z" fill="#FEFEFE"/>
<path d="M42.3047 48.3643V35.3555H44.4971V48.3643H42.3047Z" fill="#FEFEFE"/>
<path d="M38.2969 41.8845V35.3555H40.4893V41.8845H38.2969Z" fill="#FEFEFE"/>
<path d="M34.4062 52.9229V35.3555H36.5986V52.9229H34.4062Z" fill="#FEFEFE"/>
<path d="M30.5703 43.1261V35.3555H32.7627V43.1261H30.5703Z" fill="#FEFEFE"/>
<path d="M26.5703 37.5919V35.3555H28.7627V37.5919H26.5703Z" fill="#FEFEFE"/>
<path d="M50.3125 6.19141V30.1584H52.5049V6.19141H50.3125Z" fill="#FEFEFE"/>
<path d="M46.3047 10.4805V30.1597H48.4971V10.4805H46.3047Z" fill="#FEFEFE"/>
<path d="M42.3047 15.582V30.16H44.4971V15.582H42.3047Z" fill="#FEFEFE"/>
<path d="M38.2969 22.8711V30.1547H40.4893V22.8711H38.2969Z" fill="#FEFEFE"/>
<path d="M34.4062 13.9258V30.1548H36.5986V13.9258H34.4062Z" fill="#FEFEFE"/>
<path d="M30.5703 21.9883V30.1619H32.7627V21.9883H30.5703Z" fill="#FEFEFE"/>
<path d="M60.9028 38.917V35.3555H58.7109V38.917H60.9028Z" fill="#FEFEFE"/>
<path d="M64.9033 37.5202V35.3555H62.7109V37.5202H64.9033Z" fill="#FEFEFE"/>
<path d="M68.684 36.4531V35.3555H66.4922V36.4531H68.684Z" fill="#FEFEFE"/>
<path d="M72.4189 38.3738V35.3555H70.2266V38.3738H72.4189Z" fill="#FEFEFE"/>
<path d="M76.4273 37.7723V35.3555H74.2344V37.7723H76.4273Z" fill="#FEFEFE"/>
<path d="M80.4267 36.9091V35.3555H78.2344V36.9091H80.4267Z" fill="#FEFEFE"/>
<path d="M56.8955 28.8867V30.1561H54.7031V28.8867H56.8955Z" fill="#FEFEFE"/>
<path d="M60.9028 26.0586V30.1601H58.7109V26.0586H60.9028Z" fill="#FEFEFE"/>
<path d="M64.9033 28.5039V30.1608H62.7109V28.5039H64.9033Z" fill="#FEFEFE"/>
<path d="M68.684 28.9258V30.1556H66.4922V28.9258H68.684Z" fill="#FEFEFE"/>
<path d="M72.4189 27.1055V30.1591H70.2266V27.1055H72.4189Z" fill="#FEFEFE"/>
<path d="M76.4273 26.3086V30.1581H74.2344V26.3086H76.4273Z" fill="#FEFEFE"/>
<path d="M80.4267 28.6602V30.1618H78.2344V28.6602H80.4267Z" fill="#FEFEFE"/>
<path d="M26.5703 28.4883V30.1591H28.7627V28.4883H26.5703Z" fill="#FEFEFE"/>
<path d="M22 32.4258H85V33.0834H22V32.4258Z" fill="#73C7D8"/>
<path d="M60.4467 20.2463C60.4467 19.208 59.8488 18.7333 59.3313 18.5749C59.7594 18.4165 60.2278 17.9814 60.2278 17.2499C60.2278 15.8954 59.2219 15.1836 57.4387 15.1836C55.5665 15.1836 54.6797 16.3406 54.6501 17.3692H56.622C56.6522 17.2408 56.8311 16.8645 57.4387 16.8645C57.947 16.8645 58.216 17.0823 58.216 17.4479C58.216 17.7545 58.0365 17.9028 57.6683 17.9028H56.3535V19.5837H57.8376C58.2263 19.5837 58.4149 19.7619 58.4149 20.1178C58.4149 20.4737 58.1163 20.721 57.5185 20.721C56.8511 20.721 56.6123 20.3255 56.5821 20.1671H54.5703C54.6199 21.1165 55.4468 22.4415 57.5282 22.4415C59.361 22.4415 60.4467 21.5612 60.4467 20.2463ZM66.8017 16.5183V15.3019H61.224V17.0422H64.391L61.6218 22.3222H63.853L66.8012 16.5178L66.8017 16.5183Z" fill="#59E9FF"/>
<path d="M70.6901 22.5551H72.5925V15.2773H70.6605V17.8777C70.591 17.7787 70.1726 17.2254 69.246 17.2254C68.0207 17.2254 67.0547 18.224 67.0547 19.9344C67.0547 21.6453 68.011 22.6541 69.246 22.6541C70.2023 22.6541 70.6206 22.0708 70.6901 21.952V22.5551ZM70.6799 19.9344C70.6799 20.5969 70.3613 21.032 69.8535 21.032C69.3355 21.032 69.0266 20.5969 69.0266 19.9344C69.0266 19.2916 69.3355 18.8469 69.8535 18.8469C70.3619 18.8469 70.6799 19.2922 70.6799 19.9344ZM73.9272 22.5551H77.9314C79.575 22.5551 80.4316 21.7737 80.4316 20.5573C80.4316 19.5485 79.8138 19.0246 79.1567 18.8367C79.6844 18.6783 80.2424 18.2042 80.2424 17.403C80.2424 16.2952 79.4155 15.5342 77.8716 15.5342H73.9272V22.5551ZM77.4732 17.1162C77.9018 17.1162 78.1605 17.2548 78.1605 17.6401C78.1605 18.026 77.9018 18.164 77.4732 18.164H75.9293V17.1162H77.4732ZM77.5034 19.7465C78.0511 19.7465 78.34 19.9542 78.34 20.34C78.34 20.7649 78.0511 20.9726 77.5034 20.9726H75.9299V19.7465H77.5034Z" fill="#59E9FF"/>
</svg>
