<svg width="204" height="105" viewBox="0 0 204 105" fill="none" xmlns="http://www.w3.org/2000/svg">
<path fill-rule="evenodd" clip-rule="evenodd" d="M36.13 51.7546C37.8545 52.4037 39.357 53.4168 40.5691 54.8487C41.9978 56.536 42.6457 58.5346 42.6457 60.7402C42.6457 63.8216 41.6653 66.5426 39.2814 68.5498C36.9633 70.5014 34.2035 71.3417 31.1888 71.3417C28.8292 71.3417 26.5728 70.8226 24.5267 69.6319C22.4941 68.449 21.0758 66.713 20.2084 64.5287L20.0059 64.0194L26.2696 60.4056L26.5093 61.153C27.2285 63.3996 28.9092 64.2234 31.1888 64.2234C32.296 64.2234 33.4831 64.0194 34.3457 63.272C35.1113 62.6094 35.4053 61.7405 35.4053 60.7396C35.4053 59.7412 35.0954 58.8906 34.3414 58.225C33.4825 57.466 32.3003 57.2565 31.1888 57.2565H29.5491L26.8168 53.1286L32.2869 45.9877H21.0728V39.1289H41.3902V44.919L36.1294 51.754L36.13 51.7546ZM47.2184 39.1295H56.8281C60.0075 39.1295 63.1443 39.6938 66.0071 41.1184C68.6174 42.4172 70.7439 44.2803 72.2696 46.7687C72.4972 47.1406 72.7064 47.5186 72.8967 47.902C72.3691 47.8398 71.8481 48.07 71.5394 48.5078C71.2192 48.9621 71.1844 49.5569 71.4504 50.0448L74.5011 55.6426C74.4437 58.4998 73.777 61.241 72.2702 63.6988C70.7439 66.1872 68.6174 68.0503 66.0077 69.3491C63.1455 70.7731 60.0075 71.338 56.8287 71.338H47.219V39.1301L47.2184 39.1295ZM54.0702 44.7041C54.0702 51.7235 54.0677 58.7434 54.0677 65.7634H56.4749C59.4536 65.7634 62.2957 65.0001 64.5113 62.9245C66.6977 60.8758 67.5676 58.1816 67.5676 55.2335C67.5676 52.2853 66.6977 49.5911 64.5113 47.543C62.2963 45.4674 59.453 44.7041 56.4749 44.7041H54.0702Z" fill="#FEFEFE"/>
<path fill-rule="evenodd" clip-rule="evenodd" d="M36.4295 73.4488C24.5425 79.6004 8.25248 72.5041 10.0362 56.6164C10.06 56.4014 9.92394 56.2042 9.71348 56.1517C9.2456 56.0344 8.39888 55.8225 7.58938 55.6204C7.43078 55.5807 7.31548 55.4641 7.27644 55.3047C7.23801 55.1453 7.28742 54.989 7.41003 54.8803L16.2505 47.1117C16.3609 47.0146 16.5 46.9816 16.6421 47.0188C16.7843 47.0561 16.8892 47.1532 16.9386 47.2918L20.9489 58.6919C21.0044 58.8501 20.9678 59.0156 20.8501 59.1353C20.7323 59.255 20.5676 59.2953 20.4084 59.2421L18.7766 58.6999C18.6497 58.6577 18.5234 58.6736 18.4106 58.7457C18.2983 58.8177 18.2593 58.9319 18.2148 59.0577C15.3568 67.1164 23.3463 74.6756 36.4276 73.4482L36.4295 73.4488Z" fill="#59E9FF"/>
<path fill-rule="evenodd" clip-rule="evenodd" d="M55.3815 36.946C68.7953 29.9779 83.5707 37.9542 83.4566 49.8514C83.4541 50.0675 83.6335 50.2404 83.8488 50.2587C84.3295 50.2996 85.1994 50.3729 86.0309 50.4431C86.1938 50.4571 86.3267 50.5536 86.3902 50.7044C86.453 50.8559 86.4298 51.0177 86.3255 51.1447L78.8418 60.2299C78.7478 60.3435 78.616 60.3984 78.4696 60.3844C78.3232 60.3704 78.2037 60.2916 78.1335 60.1627L72.3511 49.5522C72.2712 49.405 72.281 49.2358 72.3773 49.0985C72.4743 48.9611 72.6305 48.8957 72.7958 48.9226L74.4935 49.1962C74.6253 49.2169 74.7473 49.1815 74.8473 49.093C74.9468 49.0038 74.9888 48.8866 74.9907 48.7534C75.8142 42.1261 65.6695 35.2435 55.3809 36.9472L55.3815 36.946Z" fill="#59E9FF"/>
<path fill-rule="evenodd" clip-rule="evenodd" d="M95.6792 72.9575C97.8771 72.9575 99.5284 71.3613 99.5284 68.7734C99.5284 66.1745 97.8771 64.5898 95.6792 64.5898C93.4587 64.5898 91.8184 66.1745 91.8184 68.7734C91.8184 71.3613 93.4581 72.9575 95.6792 72.9575ZM177.069 72.8207L178.743 69.9476H180.44V72.8207H182.376V64.7266H178.299C176.466 64.7266 175.384 65.6157 175.384 67.3597C175.384 68.454 175.908 69.2521 176.864 69.6167L174.985 72.8201H177.069L177.069 72.8207ZM178.504 68.3294C177.741 68.3294 177.365 68.0101 177.365 67.3603C177.365 66.7106 177.741 66.3912 178.504 66.3912H180.44V68.3294H178.504ZM166.159 72.8207H168.095L171.603 67.5997V72.8207H173.538V64.7266H171.603L168.095 69.9592V64.7266H166.159V72.8207ZM162.264 72.8207H164.201V64.7266H162.264V67.9069H158.871V64.7266H156.935V72.8207H158.871V69.6173H162.264V72.8207ZM148.872 72.8207H155.545V71.1451H150.808V69.4121H153.37V67.7817H150.808V66.3222H155.158V64.726H148.871V72.8201L148.872 72.8207ZM144.704 71.1219H141.56C141.799 70.6316 141.948 69.9134 142.073 68.6482L142.266 66.4254H144.703V71.1219H144.704ZM140.604 64.7266L140.274 68.5682C140.149 69.8567 139.966 70.6316 139.681 71.1219H138.827V74.6673H140.57V72.8207H146.07V74.6673H147.812V71.1219H146.639V64.7266H140.604ZM126.415 72.8207H128.738L131.505 69.3095V72.8207H133.361V69.2985L136.14 72.8207H138.542L135.195 68.5798L138.349 64.7266H136.117L133.361 68.1236V64.7266H131.505V68.1127L128.76 64.7266H126.482L129.705 68.6482L126.414 72.8207H126.415ZM122.326 72.9575C124.524 72.9575 126.175 71.3613 126.175 68.7734C126.175 66.1745 124.524 64.5898 122.326 64.5898C120.106 64.5898 118.465 66.1745 118.465 68.7734C118.465 71.3613 120.105 72.9575 122.326 72.9575ZM122.326 71.2245C121.107 71.2245 120.436 70.176 120.436 68.7734C120.436 67.3829 121.107 66.3222 122.326 66.3222C123.544 66.3222 124.217 67.3823 124.217 68.7734C124.217 70.1754 123.545 71.2245 122.326 71.2245ZM112.567 66.4254H114.947V72.8207H116.883V64.7266H110.904L110.506 69.3095C110.381 70.5406 110.096 70.9851 109.242 70.9851H109.128V72.9233H109.481C111.417 72.9233 112.089 71.7948 112.305 69.4579L112.567 66.4254ZM106.292 72.8207H108.684L105.495 68.5914L108.501 64.7266H106.189L104.356 67.0862L102.58 64.7266H100.063L103.115 68.6934L99.9146 72.8201H102.203L104.254 70.1754L106.292 72.8201V72.8207ZM95.6786 71.2245C94.4604 71.2245 93.7881 70.176 93.7881 68.7734C93.7881 67.3829 94.4598 66.3222 95.6786 66.3222C96.8968 66.3222 97.569 67.3823 97.569 68.7734C97.569 70.1754 96.8974 71.2245 95.6786 71.2245Z" fill="#59E9FF"/>
<path fill-rule="evenodd" clip-rule="evenodd" d="M95.5535 44.1685C98.0132 44.1685 98.8562 42.3903 98.9471 41.4322H97.0908C96.9657 41.7973 96.5442 42.4238 95.5535 42.4238C94.4262 42.4238 93.8113 41.3638 93.8113 39.9843C93.8113 38.6049 94.4262 37.5448 95.5535 37.5448C96.521 37.5448 96.9542 38.1719 97.0792 38.5365H98.9471C98.8562 37.4422 97.8881 35.8008 95.5535 35.8008C93.3215 35.8008 91.8184 37.488 91.8184 39.9843C91.8184 42.4922 93.3331 44.1685 95.5535 44.1685ZM192.181 58.8172C194.379 58.8172 196.03 57.221 196.03 54.6331C196.03 52.0342 194.379 50.4496 192.181 50.4496C189.96 50.4496 188.32 52.0342 188.32 54.6331C188.32 57.221 189.96 58.8172 192.181 58.8172ZM192.181 57.0842C190.962 57.0842 190.29 56.0357 190.29 54.6331C190.29 53.2426 190.962 52.182 192.181 52.182C193.399 52.182 194.071 53.242 194.071 54.6331C194.071 56.0351 193.399 57.0842 192.181 57.0842ZM181.078 58.6804H183.013V52.2736H187.557V50.5863H181.078V58.6804ZM175.645 58.8172C177.843 58.8172 179.495 57.221 179.495 54.6331C179.495 52.0342 177.843 50.4496 175.645 50.4496C173.424 50.4496 171.785 52.0342 171.785 54.6331C171.785 57.221 173.424 58.8172 175.645 58.8172ZM175.645 57.0842C174.427 57.0842 173.755 56.0357 173.755 54.6331C173.755 53.2426 174.427 52.182 175.645 52.182C176.864 52.182 177.536 53.242 177.536 54.6331C177.536 56.0351 176.864 57.0842 175.645 57.0842ZM168.266 58.6804H170.202V50.5863H168.266V53.7666H164.872V50.5863H162.937V58.6804H164.872V55.477H168.266V58.6804ZM154.441 58.6804H156.366V55.7848H158.541C160.374 55.7848 161.445 54.8615 161.445 53.1743C161.445 51.4754 160.374 50.5863 158.541 50.5863H154.442V58.6804H154.441ZM158.347 52.2736C159.087 52.2736 159.463 52.5813 159.463 53.1852C159.463 53.744 159.109 54.0975 158.347 54.0975H156.366V52.2736H158.347ZM146.378 58.6804H153.051V57.0048H148.314V55.2718H150.876V53.6414H148.314V52.182H152.664V50.5857H146.378V58.6798L146.378 58.6804ZM138.293 50.5863H135.4V58.6804H137.188V52.7071L139.215 58.6804H140.503L142.541 52.6479V58.6804H144.409V50.5863H141.63L139.968 55.5222L138.294 50.5863H138.293ZM129.969 58.8172C132.167 58.8172 133.818 57.221 133.818 54.6331C133.818 52.0342 132.167 50.4496 129.969 50.4496C127.748 50.4496 126.108 52.0342 126.108 54.6331C126.108 57.221 127.748 58.8172 129.969 58.8172ZM129.969 57.0842C128.75 57.0842 128.078 56.0357 128.078 54.6331C128.078 53.2426 128.75 52.182 129.969 52.182C131.187 52.182 131.859 53.242 131.859 54.6331C131.859 56.0351 131.187 57.0842 129.969 57.0842ZM122.589 58.6804H124.525V50.5863H122.589V53.7666H119.196V50.5863H117.26V58.6804H119.196V55.477H122.589V58.6804ZM108.559 58.6804H112.853C114.72 58.6804 115.688 57.7681 115.688 56.3661C115.688 55.2376 114.993 54.6221 114.219 54.4053C114.822 54.2227 115.483 53.6756 115.483 52.7523C115.483 51.4412 114.583 50.5863 112.887 50.5863H108.559V58.6804ZM112.568 52.1484C113.148 52.1484 113.513 52.3877 113.513 52.9465C113.513 53.482 113.148 53.7446 112.568 53.7446H110.461V52.1484H112.568ZM112.511 55.306C113.32 55.306 113.718 55.6138 113.718 56.1951C113.718 56.8106 113.32 57.1184 112.511 57.1184H110.461V55.306H112.511ZM105.359 58.6804H107.386L104.266 50.5863H102.159L99.0612 58.6804H100.986L101.51 57.2784H104.835L105.359 58.6804ZM102.113 55.6596L103.172 52.817L104.231 55.6596H102.113ZM92.1941 58.6804H94.1188V55.7848H96.2941C98.1272 55.7848 99.1978 54.8615 99.1978 53.1743C99.1978 51.4754 98.1272 50.5863 96.2941 50.5863H92.1947V58.6804H92.1941ZM96.1001 52.2736C96.8407 52.2736 97.2165 52.5813 97.2165 53.1852C97.2165 53.744 96.8633 54.0975 96.1001 54.0975H94.1188V52.2736H96.1001ZM150.808 44.0311H152.835L149.715 35.937H147.608L144.51 44.0311H146.435L146.959 42.629H150.284L150.808 44.0311ZM147.562 41.0102L148.621 38.1676L149.68 41.0102H147.562ZM137.199 35.9376H134.307V44.0317H136.094V38.0583L138.122 44.0317H139.409L141.447 37.9991V44.0317H143.315V35.9376H140.536L138.874 40.8734L137.2 35.9376H137.199ZM126.244 44.0317H132.917V42.3561H128.179V40.623H130.742V38.9926H128.179V37.5332H132.529V35.937H126.243V44.0311L126.244 44.0317ZM117.406 37.6248H120.173V44.0317H122.098V37.6248H124.865V35.9376H117.406V37.6248ZM113.147 44.1685C115.607 44.1685 116.45 42.3903 116.541 41.4322H114.684C114.559 41.7973 114.138 42.4238 113.147 42.4238C112.02 42.4238 111.405 41.3638 111.405 39.9843C111.405 38.6049 112.02 37.5448 113.147 37.5448C114.115 37.5448 114.548 38.1719 114.673 38.5365H116.541C116.45 37.4422 115.482 35.8008 113.147 35.8008C110.915 35.8008 109.412 37.488 109.412 39.9843C109.412 42.4922 110.927 44.1685 113.147 44.1685ZM100.45 44.0317H102.385L105.893 38.8107V44.0317H107.828V35.9376H105.893L102.385 41.1702V35.9376H100.45V44.0317Z" fill="#FEFEFE"/>
</svg>
