<svg width="108" height="63" viewBox="0 0 108 63" fill="none" xmlns="http://www.w3.org/2000/svg">
<path d="M57.0385 27.1922L57.7057 27.4604L57.9216 27.5621C60.2994 28.7268 61.994 30.8908 62.446 33.4749L63.6909 33.4932L61.7567 36.5773L59.9679 33.4383L61.2312 33.4572C60.8113 31.4421 59.4964 29.7266 57.6696 28.7363L55.7817 33.2557L59.3006 33.3077L50.9768 45.794L53.1796 37.1316L49.0011 36.9248L52.1779 28.0874C49.4892 28.7912 47.4098 30.9221 46.8659 33.5777L46.3582 32.686L45.612 33.8744C46.1957 29.6392 50.1749 26.5504 53.9282 26.6964L53.5082 27.8641L50.634 35.8617L54.7674 36.0655L53.6808 39.9196L57.2443 34.4251L54.0379 34.3778L57.0385 27.194V27.1922ZM46.2484 33.8182L48.0367 36.9572L46.7728 36.9383C47.2722 39.3298 49.032 41.2935 51.3884 42.1267L51.1037 43.2494C48.214 42.2791 46.0729 39.8569 45.5598 36.92L44.3125 36.9017L46.2484 33.8177V33.8182ZM54.0189 42.5539C57.5088 42.5013 60.4709 40.0791 61.1387 36.8166L61.6476 37.7095L62.392 36.5211C61.7995 40.8237 57.8107 43.9993 53.2645 43.6802L54.0189 42.5539Z" fill="#59E9FF"/>
<path fill-rule="evenodd" clip-rule="evenodd" d="M73.9988 12.334V30.3543C73.9988 36.757 71.8369 41.7533 68.8968 45.5878C65.1465 50.4783 59.7396 54.0162 54.0089 56.1914C48.2794 53.9802 42.8671 50.421 39.1079 45.5228C36.1649 41.6895 34 36.7091 34 30.3543V12.334C40.6495 9.90288 47.3221 7.54271 54 5.19141C60.6791 7.54093 67.3505 9.90288 74 12.334H73.9988ZM47.5409 19.7832V18.274H46.3624V14.9748H44.2485L41.4181 18.5623V19.7826H44.5931V21.3911H46.3624V19.7826H47.5409V19.7832ZM43.2052 18.274L44.5931 16.4657V18.274H43.2052ZM50.8683 14.8478C49.245 14.8478 48.2835 15.798 48.2835 17.2794V19.0859C48.2835 20.5685 49.245 21.5176 50.8683 21.5176C52.4923 21.5176 53.4537 20.5679 53.4537 19.0859V17.2794C53.4537 15.7974 52.4923 14.8478 50.8683 14.8478ZM50.8683 19.8907C50.3523 19.8907 50.0979 19.5385 50.0979 19.0321V17.3338C50.0979 16.8279 50.3523 16.4752 50.8683 16.4752C51.3861 16.4752 51.6394 16.8279 51.6394 17.3338V19.0321C51.6394 19.5385 51.3861 19.8907 50.8683 19.8907ZM57.0225 14.8478C55.3992 14.8478 54.4377 15.798 54.4377 17.2794V19.0859C54.4377 20.5685 55.3986 21.5176 57.0225 21.5176C58.6465 21.5176 59.6079 20.5679 59.6079 19.0859V17.2794C59.6079 15.7974 58.6465 14.8478 57.0225 14.8478ZM57.0225 19.8907C56.5053 19.8907 56.2515 19.5385 56.2515 19.0321V17.3338C56.2515 16.8279 56.5047 16.4752 57.0225 16.4752C57.5391 16.4752 57.7942 16.8279 57.7942 17.3338V19.0321C57.7942 19.5385 57.5391 19.8907 57.0225 19.8907ZM66.5795 15.2939H64.8315L63.3695 19.0043L61.8992 15.2939H59.9709L62.4543 21.0726H64.21L66.5795 15.2939ZM39.2598 24.0107V30.4075C39.2598 34.8512 40.5735 38.8654 43.2835 42.3962C45.9775 45.9051 49.9336 48.738 54.0178 50.5829C58.0955 48.7664 62.0368 45.9618 64.72 42.463C67.4419 38.9133 68.7384 34.8701 68.7384 30.408V24.0107L39.2592 24.0113L39.2598 24.0107Z" fill="#FEFEFE"/>
</svg>
