<svg width="122" height="62" viewBox="0 0 122 62" fill="none" xmlns="http://www.w3.org/2000/svg">
<path fill-rule="evenodd" clip-rule="evenodd" d="M111.111 58.802C110.167 58.802 109.512 58.0685 109.512 57.1608C109.512 56.2531 110.167 55.5197 111.111 55.5197C112.054 55.5197 112.7 56.2331 112.7 57.1608C112.7 58.0885 112.055 58.802 111.111 58.802ZM111.111 54.287C109.379 54.287 108.08 55.4961 108.08 57.1608C108.08 58.8238 109.379 60.0328 111.111 60.0328C112.821 60.0328 114.131 58.8238 114.131 57.1608C114.131 55.4979 112.821 54.287 111.111 54.287ZM101.404 59.8912H102.814V57.6891H105.502V59.8912H106.912V54.4268H105.502V56.5109H102.814V54.4268H101.404V59.8912ZM94.8398 61.4997V59.8912H99.3029V61.4997H100.558V58.7148H99.5813V54.4268H95.1182L94.8853 56.3184C94.7415 57.5711 94.5196 58.261 94.1975 58.7148H93.588V61.4997H94.8416H94.8398ZM98.1694 58.7148H95.5603C95.8605 58.2501 96.0152 57.6129 96.1589 56.3929L96.259 55.605H98.1676V58.7148H98.1694ZM90.2056 58.8002C89.2632 58.8002 88.6082 58.0667 88.6082 57.159C88.6082 56.2513 89.2632 55.5178 90.2056 55.5178C91.1499 55.5178 91.794 56.2313 91.794 57.159C91.794 58.0867 91.1499 58.8002 90.2056 58.8002ZM90.2056 54.2852C88.4735 54.2852 87.1762 55.4942 87.1762 57.159C87.1762 58.8219 88.4753 60.031 90.2056 60.031C91.9159 60.031 93.2259 58.8219 93.2259 57.159C93.2259 55.4961 91.9159 54.2852 90.2056 54.2852ZM82.4766 59.8894H83.8867V55.6032H86.8287V54.4249H82.4766V59.8894ZM79.5418 59.8894H80.9628V54.4249H79.5418V59.8894ZM76.245 57.2443C76.9109 57.2443 77.2547 57.5257 77.2547 57.9887C77.2547 58.5169 76.9218 58.7766 76.245 58.7766H74.6675V57.2425H76.245V57.2443ZM74.6675 56.1206V54.4249H73.2574V59.8894H76.4669C78.0535 59.8894 78.6994 58.9817 78.6994 57.9887C78.6994 56.9303 78.0553 56.1206 76.456 56.1206H74.6693H74.6675ZM69.7349 57.6219C70.3244 57.6219 70.5792 57.8598 70.5792 58.1938C70.5792 58.6259 70.3026 58.8419 69.7349 58.8419H68.0483V57.6219H69.7349ZM69.6803 55.4743C70.157 55.4743 70.4573 55.6685 70.4573 56.0243C70.4573 56.4455 70.1352 56.618 69.6803 56.618H68.0483V55.4743H69.6803ZM66.6382 59.8912H69.9242C71.2451 59.8912 72.022 59.2649 72.022 58.3136C72.022 57.5911 71.5216 57.2026 71.0013 57.061C71.4234 56.9411 71.8564 56.5327 71.8564 55.8737C71.8564 54.9224 71.0468 54.4268 69.9023 54.4268H66.6382V59.8912ZM56.6094 59.8912H58.0085L60.8287 56.2204V59.8912H62.2388V54.4268H60.8287L58.0085 58.0885V54.4268H56.6094V59.8912Z" fill="white"/>
<path fill-rule="evenodd" clip-rule="evenodd" d="M48.7123 58.7983C47.7698 58.7983 47.113 58.0649 47.113 57.1572C47.113 56.2494 47.768 55.516 48.7123 55.516C49.6566 55.516 50.2989 56.2295 50.2989 57.1572C50.2989 58.0849 49.6548 58.7983 48.7123 58.7983ZM48.7123 54.2851C46.9802 54.2851 45.6829 55.4942 45.6829 57.1572C45.6829 58.8201 46.982 60.0292 48.7123 60.0292C50.4226 60.0292 51.7326 58.8201 51.7326 57.1572C51.7326 55.4942 50.4226 54.2851 48.7123 54.2851ZM39.0055 59.8894H40.4156V57.6855H43.1029V59.8894H44.513V54.4249H43.1029V56.5091H40.4156V54.4249H39.0055V59.8894ZM32.8412 59.8894H34.1967V57.5021L36.5274 59.8894H38.3814L35.6049 57.0482L38.214 54.4231H36.4164L34.1967 56.6706V54.4231H32.8412V56.6797L30.6105 54.4231H28.8002L31.442 57.0809L28.6892 59.8876H30.4995L32.8412 57.4912V59.8876V59.8894ZM26.0546 53.5499H27.4629V51.9414H26.0546V53.5499ZM23.7348 53.5499H25.1449V51.9414H23.7348V53.5499ZM25.5997 55.3526C26.3221 55.3526 26.8424 55.7411 27.0553 56.4328H24.1242C24.3025 55.752 24.8338 55.3526 25.5997 55.3526ZM25.5997 54.2833C23.8804 54.2833 22.6577 55.4597 22.6577 57.1553C22.6577 58.7965 23.8895 60.0274 25.7107 60.0274C27.6193 60.0274 28.3872 58.851 28.4745 58.2882H27.0753C26.9753 58.4389 26.6095 58.8818 25.7107 58.8818C24.7773 58.8818 24.1351 58.2337 24.0787 57.3805H28.5418V57.2298C28.5418 55.4488 27.3319 54.2815 25.5997 54.2815V54.2833ZM16.5825 61.4961V59.8876H21.0456V61.4961H22.3011V58.7112H21.324V54.4231H16.8609L16.628 56.313C16.4825 57.5656 16.2605 58.2555 15.9384 58.7112H15.3289V61.4961H16.5843H16.5825ZM19.9121 58.7112H17.303C17.6014 58.2464 17.7579 57.6092 17.9016 56.3892L18.0017 55.6013H19.9103V58.7112H19.9121ZM13.2038 57.1553C13.2038 58.083 12.5925 58.7965 11.6718 58.7965C10.7166 58.7965 10.0962 58.083 10.0962 57.1553C10.0962 56.2258 10.7184 55.5142 11.6718 55.5142C12.5925 55.5142 13.2038 56.2277 13.2038 57.1553ZM13.1911 59.8876H14.6011V54.4231H13.1801V55.2437C13.0582 55.0168 12.4924 54.3033 11.3043 54.3033C9.85053 54.3033 8.65151 55.3835 8.65151 57.1535C8.65151 58.9345 9.85053 60.0038 11.2934 60.0038C12.5361 60.0038 13.0819 59.2377 13.1911 59.0198V59.884V59.8876ZM5.8168 59.8876H7.31603V52.2192H5.8168V55.3835H1.48831V52.2192H0V59.8876H1.48831V56.6797H5.8168V59.8876Z" fill="white"/>
<path fill-rule="evenodd" clip-rule="evenodd" d="M115.383 54.7183H116.409V57.0856H117.122V54.7183H118.148V54.0938H115.383V54.7183ZM119.731 54.0938H118.66V57.0856H119.322V54.878L120.073 57.0856H120.55L121.305 54.8562V57.0856H121.998V54.0938H120.969L120.352 55.9183L119.731 54.0938Z" fill="white"/>
<path fill-rule="evenodd" clip-rule="evenodd" d="M27.9326 36.0536V26.1994C27.9326 20.7948 23.475 16.3452 18.0584 16.3452C12.6401 16.3452 8.1879 20.7948 8.1879 26.1994C8.1879 31.6057 12.6401 36.0536 18.0584 36.0536H27.9326ZM72.6549 33.7171C71.4631 31.3951 70.8391 28.8263 70.8391 26.1994C70.8391 17.0641 78.3261 9.5899 87.4834 9.5899C97.7215 9.5899 105.587 18.8377 103.904 28.9171L103.793 29.5797H78.2151C79.6325 33.4175 83.3405 36.0536 87.4816 36.0536H105.94V0.5H112.708V42.8088H87.3961C84.4031 42.8088 81.5047 41.9828 78.9647 40.4578C78.7464 40.318 78.5335 40.1728 78.3207 40.0239C75.6115 41.8248 72.3874 42.8088 69.1251 42.8088H69.0105C59.8623 42.8088 52.3934 35.3201 52.3934 26.1994V16.3778C47.3262 16.7881 43.318 21.0816 43.318 26.1994V42.8088H36.5459V26.1994C36.5459 17.3509 43.5836 10.0256 52.3934 9.60987V0.5H59.1672V9.5899H68.1353V16.3452H59.1672V26.1994C59.1672 31.6075 63.6213 36.0536 69.0414 36.0536C70.5589 36.0536 72.089 35.7032 73.4554 35.0369C73.1698 34.6085 72.9023 34.1691 72.6512 33.7171H72.6549ZM96.7536 22.8226C95.3344 18.9812 91.63 16.3452 87.4834 16.3452C83.3387 16.3452 79.6325 18.983 78.2151 22.8226H96.7536ZM34.7028 42.8088H18.0257C8.87747 42.8088 1.41406 35.3201 1.41406 26.1994C1.41406 17.0623 8.89931 9.5899 18.0566 9.5899C27.214 9.5899 34.7028 17.0623 34.7028 26.1994V42.8088Z" fill="white"/>
</svg>
