<svg width="54" height="54" viewBox="0 0 54 54" fill="none" xmlns="http://www.w3.org/2000/svg">
<path d="M52.3333 26.5C52.3333 40.7674 40.7674 52.3333 26.5 52.3333C12.2326 52.3333 0.666667 40.7674 0.666667 26.5C0.666667 12.2326 12.2326 0.666667 26.5 0.666667C40.7674 0.666667 52.3333 12.2326 52.3333 26.5Z" stroke="#4B5157" stroke-width="1.33333"/>
<path fill-rule="evenodd" clip-rule="evenodd" d="M33.1672 15.005L29.9691 15C26.3762 15 24.0543 17.3183 24.0543 20.9064V23.6297H20.8388C20.5609 23.6297 20.3359 23.8489 20.3359 24.1193V28.065C20.3359 28.3354 20.5612 28.5544 20.8388 28.5544H24.0543V38.5106C24.0543 38.781 24.2793 39 24.5572 39H28.7525C29.0304 39 29.2554 38.7808 29.2554 38.5106V28.5544H33.015C33.2929 28.5544 33.5179 28.3354 33.5179 28.065L33.5194 24.1193C33.5194 23.9895 33.4663 23.8651 33.3722 23.7733C33.278 23.6814 33.1497 23.6297 33.0163 23.6297H29.2554V21.3212C29.2554 20.2116 29.5271 19.6483 31.0123 19.6483L33.1667 19.6475C33.4443 19.6475 33.6693 19.4283 33.6693 19.1582V15.4944C33.6693 15.2245 33.4445 15.0055 33.1672 15.005Z" fill="white"/>
</svg>
