<svg width="180" height="105" viewBox="0 0 180 105" fill="none" xmlns="http://www.w3.org/2000/svg">
<path d="M117.573 33.1836C108.198 33.5838 99.085 38.4253 103.357 49.8595C101.434 40.5175 112.147 35.6004 112.147 35.6004C105.144 40.0752 104.747 45.91 105.413 49.615C114.587 48.0563 114.791 40.9548 117.573 33.1836Z" fill="#59E9FF"/>
<path d="M112.157 35.5982C105.154 40.073 104.757 45.9078 105.423 49.6128C106.371 49.4506 107.222 49.2292 107.991 48.9567C105.223 41.765 112.157 35.5977 112.157 35.5977V35.5982Z" fill="#59E9FF"/>
<path d="M83.4688 6.03566C99.3896 9.00338 113.785 19.4944 103.707 37.9844C109.26 22.4987 92.1512 11.4873 92.1512 11.4873C103.032 20.8372 102.292 30.9 100.252 37.0668C84.9609 32.1747 86.3369 19.9907 83.4693 6.03516L83.4688 6.03566Z" fill="#59E9FF"/>
<path fill-rule="evenodd" clip-rule="evenodd" d="M42.7969 49.9437H53.1055C56.9189 49.9437 58.9069 48.116 58.9069 45.27C58.9069 43.0721 57.6589 41.7533 56.2719 41.2439C57.3812 40.758 58.4675 39.6706 58.4675 37.9816C58.4675 35.321 56.5491 33.5163 52.9664 33.5163H42.7969V49.9437ZM52.0418 37.2183C53.036 37.2183 53.6369 37.5424 53.6369 38.4445C53.6369 39.3465 53.036 39.6706 52.0418 39.6706H47.4423V37.2183H52.0418ZM52.1113 43.3726C53.3823 43.3726 54.0528 43.8124 54.0528 44.8072C54.0528 45.8019 53.3823 46.2417 52.1113 46.2417H47.4423V43.3726H52.1113ZM63.2661 49.9437H68.0041V33.5163H63.2661V49.9437ZM81.2165 50.2212C86.1396 50.2212 90.0225 46.8202 90.0225 41.7297C90.0225 36.5471 86.1391 33.2383 81.2165 33.2383C76.2933 33.2383 72.4104 36.5466 72.4104 41.7297C72.4104 46.8197 76.2468 50.2212 81.2165 50.2212ZM81.2165 46.0103C78.7201 46.0103 77.2175 44.136 77.2175 41.7297C77.2175 39.3235 78.7431 37.4492 81.2165 37.4492C83.7123 37.4492 85.2149 39.3235 85.2149 41.7297C85.2149 44.136 83.7123 46.0103 81.2165 46.0103Z" fill="#FEFEFE"/>
<path fill-rule="evenodd" clip-rule="evenodd" d="M42.7974 72.669H47.5354V66.468H53.3137V62.6278H47.5354V60.0823H57.7745V56.242H42.7969V72.669H42.7974ZM61.857 72.669H66.5951V66.9539H70.3163L73.5292 72.669H78.5214L74.9623 66.3989C76.8347 65.589 77.944 63.9691 77.944 61.6561C77.944 58.0928 75.5632 56.242 71.9115 56.242H61.8576V72.669H61.857ZM71.3101 60.2446C72.4894 60.2446 73.0899 60.6378 73.0899 61.6325C73.0899 62.5582 72.4889 63.021 71.3101 63.021H66.5951V60.2446H71.3101ZM82.3958 72.669H97.4425V68.6429H87.1339V66.1214H92.7275V62.2111H87.1339V60.0593H96.5413V56.242H82.3958V72.669ZM108.043 59.6195C109.961 59.6195 110.955 60.2671 111.233 60.6608H115.971C115.462 58.5556 113.683 55.918 108.043 55.918C103.859 55.918 100.809 57.5609 100.809 60.9614C100.809 64.1545 103.235 65.9126 107.211 66.2832C108.02 66.3523 108.667 66.3989 109.499 66.4916C110.701 66.6534 111.417 66.9314 111.417 67.8335C111.417 68.7355 110.655 69.268 108.806 69.268C106.749 69.268 105.64 68.4581 105.385 67.7408H100.393C100.832 70.0313 102.959 72.9695 108.806 72.9695C113.775 72.9695 116.364 71.003 116.364 67.4863C116.364 63.9 113.983 62.3959 109.753 62.0953L107.488 61.91C106.309 61.8174 105.685 61.4472 105.685 60.7299C105.685 59.9896 106.563 59.6195 108.043 59.6195ZM132.442 72.669H137.18V56.242H132.442V62.3964H125.438V56.242H120.7V72.669H125.438V66.5146H132.442V72.669Z" fill="#FEFEFE"/>
</svg>
