<svg width="28" height="28" viewBox="0 0 28 28" fill="none" xmlns="http://www.w3.org/2000/svg">
<path fill-rule="evenodd" clip-rule="evenodd" d="M14.1472 22.9884C19.112 22.9884 23.1368 18.9636 23.1368 13.9988C23.1368 9.03392 19.112 5.00913 14.1472 5.00913C9.18236 5.00913 5.15756 9.03392 5.15756 13.9988C5.15756 18.9636 9.18236 22.9884 14.1472 22.9884ZM14.1472 25.2358C20.3532 25.2358 25.3842 20.2048 25.3842 13.9988C25.3842 7.79271 20.3532 2.76172 14.1472 2.76172C7.94115 2.76172 2.91016 7.79271 2.91016 13.9988C2.91016 20.2048 7.94115 25.2358 14.1472 25.2358Z" fill="white"/>
<path fill-rule="evenodd" clip-rule="evenodd" d="M16.1125 20.9395C16.9426 19.2793 17.5209 16.8285 17.5209 13.9988C17.5209 11.169 16.9426 8.71821 16.1125 7.05804C15.2152 5.26345 14.3914 5.00913 14.1498 5.00913C13.9081 5.00913 13.0843 5.26345 12.187 7.05804C11.3569 8.71821 10.7787 11.169 10.7787 13.9988C10.7787 16.8285 11.3569 19.2793 12.187 20.9395C13.0843 22.7341 13.9081 22.9884 14.1498 22.9884C14.3914 22.9884 15.2152 22.7341 16.1125 20.9395ZM14.1498 25.2358C17.2528 25.2358 19.7683 20.2048 19.7683 13.9988C19.7683 7.79271 17.2528 2.76172 14.1498 2.76172C11.0467 2.76172 8.53125 7.79271 8.53125 13.9988C8.53125 20.2048 11.0467 25.2358 14.1498 25.2358Z" fill="white"/>
<path fill-rule="evenodd" clip-rule="evenodd" d="M25.3287 15.1224C25.3654 14.7528 25.3842 14.378 25.3842 13.9987C25.3842 13.6195 25.3654 13.2446 25.3287 12.875H2.96564C2.92894 13.2446 2.91016 13.6195 2.91016 13.9987C2.91016 14.378 2.92894 14.7528 2.96564 15.1224H25.3287Z" fill="white"/>
</svg>
