<svg width="54" height="54" viewBox="0 0 54 54" fill="none" xmlns="http://www.w3.org/2000/svg">
<path d="M53.0013 26.5C53.0013 40.7674 41.4353 52.3333 27.168 52.3333C12.9006 52.3333 1.33464 40.7674 1.33464 26.5C1.33464 12.2326 12.9006 0.666667 27.168 0.666667C41.4353 0.666667 53.0013 12.2326 53.0013 26.5Z" stroke="#4B5157" stroke-width="1.33333"/>
<path fill-rule="evenodd" clip-rule="evenodd" d="M27.6693 15.668C30.7472 15.668 31.1332 15.681 32.342 15.7362C33.5483 15.7912 34.3722 15.9828 35.093 16.263C35.8383 16.5526 36.4703 16.9401 37.1004 17.5701C37.7305 18.2002 38.118 18.8323 38.4076 19.5775C38.6878 20.2984 38.8794 21.1223 38.9344 22.3286C38.9896 23.5374 39.0026 23.9234 39.0026 27.0013C39.0026 30.0793 38.9896 30.4652 38.9344 31.674C38.8794 32.8803 38.6878 33.7042 38.4076 34.4251C38.118 35.1703 37.7305 35.8024 37.1004 36.4325C36.4703 37.0625 35.8383 37.45 35.093 37.7397C34.3722 38.0198 33.5483 38.2114 32.342 38.2664C31.1332 38.3216 30.7472 38.3346 27.6693 38.3346C24.5913 38.3346 24.2054 38.3216 22.9966 38.2664C21.7903 38.2114 20.9664 38.0198 20.2455 37.7397C19.5002 37.45 18.8682 37.0625 18.2381 36.4325C17.6081 35.8024 17.2205 35.1703 16.9309 34.4251C16.6508 33.7042 16.4592 32.8803 16.4041 31.674C16.349 30.4652 16.3359 30.0793 16.3359 27.0013C16.3359 23.9234 16.349 23.5374 16.4041 22.3286C16.4592 21.1223 16.6508 20.2984 16.9309 19.5775C17.2205 18.8323 17.6081 18.2002 18.2381 17.5701C18.8682 16.9401 19.5002 16.5526 20.2455 16.263C20.9664 15.9828 21.7903 15.7912 22.9966 15.7362C24.2054 15.681 24.5913 15.668 27.6693 15.668ZM27.6657 30.7743C29.7515 30.7743 31.4423 29.0835 31.4423 26.9977C31.4423 24.912 29.7515 23.2211 27.6657 23.2211C25.5799 23.2211 23.8891 24.912 23.8891 26.9977C23.8891 29.0835 25.5799 30.7743 27.6657 30.7743ZM27.6657 21.1797C30.8789 21.1797 33.4837 23.7845 33.4837 26.9977C33.4837 30.2109 30.8789 32.8157 27.6657 32.8157C24.4525 32.8157 21.8477 30.2109 21.8477 26.9977C21.8477 23.7845 24.4525 21.1797 27.6657 21.1797ZM35.4767 20.831C35.4767 21.596 34.8565 22.2161 34.0915 22.2161C33.3265 22.2161 32.7063 21.596 32.7063 20.831C32.7063 20.0659 33.3265 19.4457 34.0915 19.4457C34.8565 19.4457 35.4767 20.0659 35.4767 20.831Z" fill="white"/>
</svg>
