<svg width="180" height="105" viewBox="0 0 180 105" fill="none" xmlns="http://www.w3.org/2000/svg">
<path fill-rule="evenodd" clip-rule="evenodd" d="M26.4453 60.4042H31.604V42.5195H26.4453V60.4042ZM49.0929 60.4042H53.4207V42.5195H48.489V52.0668L41.1912 42.5195H35.4286V60.4042H40.4868V49.4217L49.0929 60.4042ZM75.9677 42.5195H70.5828L66.0784 54.0058L61.549 42.5195H55.6103L63.2604 60.4042H68.6707L75.9681 42.5195H75.9677ZM78.1573 60.4042H94.5385V56.021H83.3156V53.2757H89.4053V49.0186H83.3156V46.676H93.5575V42.5195H78.1573V60.4042ZM97.2314 60.4042H102.39V54.1826H106.441L109.939 60.4042H115.374L111.499 53.5781C113.537 52.6963 114.745 50.9335 114.745 48.4141C114.745 44.5351 112.153 42.5195 108.177 42.5195H97.231V60.4042H97.2314ZM116.633 46.9529H123.1V60.4042H128.233V46.9529H134.7V42.5195H116.632V46.9529H116.633ZM137.393 60.4042H153.775V56.021H142.552V53.2757H148.641V49.0186H142.552V46.676H152.793V42.5195H137.393V60.4042ZM156.467 60.4042H161.626V54.1826H165.677L169.175 60.4042H174.611L170.736 53.5781C172.774 52.6963 173.982 50.9335 173.982 48.4141C173.982 44.5351 171.389 42.5195 167.414 42.5195H156.467V60.4042ZM166.759 46.8778C168.042 46.8778 168.697 47.3059 168.697 48.3891C168.697 49.3967 168.043 49.9009 166.759 49.9009H161.626V46.8778H166.759ZM107.523 46.8778C108.807 46.8778 109.461 47.3059 109.461 48.3891C109.461 49.3967 108.807 49.9009 107.523 49.9009H102.39V46.8778H107.523Z" fill="#FEFEFE"/>
<path d="M80.8528 68.0773H78.6641V66.78H84.3936V68.0773H82.2049V73.0536H80.8532V68.0773H80.8528ZM93.6951 73.0536H89.0217V66.7805H93.6851V68.0777H90.3658V69.0924H92.3217V70.3896H90.3658V71.7573H93.9816V73.0546H93.6946L93.6951 73.0536ZM102.693 72.6127C102.479 72.7786 102.223 72.9189 101.922 73.0154C101.654 73.1004 101.352 73.15 101.015 73.15C100.61 73.15 100.239 73.0669 99.9085 72.9147C99.5629 72.755 99.2636 72.521 99.0176 72.229C98.7688 71.9331 98.5762 71.5796 98.4464 71.186C98.3184 70.7975 98.2509 70.3684 98.2509 69.9171C98.2509 69.47 98.3189 69.0423 98.4478 68.6529C98.579 68.2583 98.7721 67.9038 99.0204 67.6089C99.2674 67.3154 99.5667 67.0801 99.9113 66.9208C100.241 66.7682 100.611 66.6845 101.015 66.6845C101.355 66.6845 101.658 66.7332 101.924 66.8159C102.225 66.9095 102.479 67.0475 102.692 67.2105C102.943 67.4043 103.135 67.633 103.276 67.867C103.447 68.1496 103.544 68.4412 103.582 68.686L103.634 69.0172H102.332L102.262 68.8296C102.227 68.7351 102.163 68.607 102.061 68.478C101.986 68.3826 101.891 68.2871 101.773 68.2072C101.674 68.1401 101.558 68.0829 101.425 68.0446C101.305 68.0102 101.169 67.9903 101.014 67.9903C100.807 67.9903 100.626 68.0338 100.471 68.1118C100.304 68.1954 100.162 68.3202 100.046 68.4747C99.916 68.6481 99.8164 68.8613 99.7484 69.0999C99.6772 69.3499 99.6417 69.6278 99.6417 69.9175C99.6417 70.2082 99.6772 70.4856 99.7484 70.7356C99.8164 70.9742 99.916 71.1874 100.046 71.3608C100.162 71.5158 100.304 71.6406 100.471 71.7242C100.626 71.8022 100.807 71.8452 101.014 71.8452C101.17 71.8452 101.308 71.8244 101.428 71.7895C101.563 71.7507 101.679 71.6926 101.779 71.6245C101.899 71.5428 101.996 71.4449 102.073 71.3471C102.176 71.2153 102.243 71.0848 102.278 70.9894L102.347 70.8017H103.627L103.583 71.1264C103.55 71.3703 103.454 71.6623 103.284 71.9459C103.141 72.1817 102.947 72.4152 102.692 72.6127H102.693ZM113.402 73.0536H112.337V70.5413H109.76V73.0536H108.409V66.7805H109.76V69.2446H112.337V66.7805H113.689V73.0536H113.402ZM123.175 66.7805H124.208V73.0938H123.191L120.199 68.9497V73.0536H118.879V66.7805H120.243L122.888 70.4903V66.7805H123.175H123.175ZM133.996 72.2342C133.743 72.5262 133.434 72.7587 133.078 72.9166C132.738 73.0678 132.356 73.15 131.938 73.15C131.517 73.15 131.132 73.0688 130.79 72.9189C130.434 72.7625 130.125 72.5324 129.873 72.2413C129.62 71.9506 129.424 71.5985 129.292 71.2011C129.162 70.8107 129.094 70.3774 129.094 69.9166C129.094 69.461 129.163 69.0309 129.294 68.642C129.429 68.245 129.627 67.8915 129.881 67.5995C130.134 67.3079 130.443 67.0749 130.798 66.9175C131.139 66.7668 131.522 66.6841 131.938 66.6841C132.356 66.6841 132.738 66.7663 133.078 66.9175C133.434 67.0754 133.743 67.3079 133.996 67.5999C134.25 67.893 134.449 68.2455 134.583 68.642C134.714 69.0309 134.783 69.4615 134.783 69.9166C134.783 70.3722 134.713 70.8027 134.583 71.1916C134.449 71.5881 134.251 71.9407 133.996 72.2337V72.2342ZM130.89 71.3613C131.014 71.5187 131.166 71.6434 131.346 71.728C131.517 71.8088 131.715 71.8528 131.938 71.8528C132.161 71.8528 132.357 71.8084 132.527 71.7275C132.707 71.6425 132.86 71.5168 132.984 71.3594C133.12 71.1883 133.224 70.9766 133.296 70.7365C133.369 70.4898 133.407 70.2129 133.407 69.9171C133.407 69.6269 133.369 69.3514 133.295 69.1037C133.222 68.8637 133.117 68.6505 132.98 68.478C132.855 68.3197 132.702 68.1921 132.523 68.1066C132.354 68.0253 132.158 67.9813 131.938 67.9813C131.716 67.9813 131.519 68.0257 131.349 68.1066C131.17 68.1916 131.017 68.3173 130.893 68.4747C130.757 68.6458 130.653 68.858 130.581 69.0981C130.508 69.3447 130.47 69.6217 130.47 69.9171C130.47 70.2157 130.508 70.4941 130.58 70.7408C130.651 70.9804 130.755 71.1912 130.89 71.3618L130.89 71.3613ZM141.021 71.7483H144.468V73.0536H139.669V66.7805H141.021V71.7483ZM153.519 72.2342C153.266 72.5262 152.957 72.7587 152.601 72.9166C152.261 73.0678 151.879 73.15 151.461 73.15C151.04 73.15 150.655 73.0688 150.313 72.9189C149.957 72.763 149.648 72.5324 149.396 72.2417C149.144 71.952 148.948 71.5999 148.815 71.2016C148.685 70.8112 148.616 70.3778 148.616 69.9171C148.616 69.4615 148.686 69.0314 148.818 68.6425C148.951 68.246 149.149 67.8934 149.403 67.6004C149.657 67.3084 149.965 67.0758 150.321 66.918C150.663 66.7672 151.045 66.6845 151.461 66.6845C151.879 66.6845 152.261 66.7668 152.602 66.918C152.957 67.0758 153.265 67.3084 153.519 67.6004C153.773 67.8934 153.972 68.246 154.105 68.6425C154.236 69.0314 154.306 69.4619 154.306 69.9171C154.306 70.3726 154.236 70.8032 154.105 71.1921C153.972 71.5886 153.773 71.9412 153.519 72.2342ZM150.412 71.3613C150.536 71.5187 150.689 71.6434 150.868 71.728C151.039 71.8088 151.238 71.8528 151.461 71.8528C151.683 71.8528 151.881 71.8084 152.051 71.7275C152.23 71.6425 152.383 71.5168 152.507 71.3594C152.643 71.1883 152.747 70.9766 152.819 70.7361C152.892 70.4894 152.931 70.2124 152.931 69.9171C152.931 69.6264 152.892 69.3504 152.818 69.1037C152.745 68.8641 152.64 68.6515 152.503 68.4785C152.378 68.3202 152.225 68.1926 152.046 68.107C151.877 68.0257 151.682 67.9818 151.462 67.9818C151.24 67.9818 151.043 68.0262 150.873 68.107C150.693 68.1921 150.54 68.3178 150.416 68.4752C150.28 68.6463 150.176 68.8585 150.105 69.0985C150.031 69.3452 149.993 69.6226 149.993 69.9175C149.993 70.2162 150.03 70.4946 150.104 70.7413C150.174 70.9809 150.278 71.1916 150.413 71.3622L150.412 71.3613ZM161.499 69.2847H164.4V72.2242L164.308 72.3098C164.178 72.4317 164.016 72.5579 163.82 72.6732C163.654 72.7715 163.462 72.8627 163.244 72.9383C163.052 73.005 162.84 73.0598 162.609 73.0966C162.395 73.1311 162.166 73.15 161.924 73.15C161.48 73.15 161.072 73.0688 160.708 72.9189C160.329 72.763 160 72.5328 159.73 72.2427C159.458 71.9506 159.245 71.5966 159.102 71.1973C158.962 70.806 158.887 70.3717 158.887 69.909C158.887 69.4605 158.96 69.0361 159.095 68.6515C159.233 68.2559 159.438 67.9033 159.697 67.6099C159.957 67.3159 160.272 67.081 160.63 66.9218C160.975 66.7677 161.36 66.6836 161.773 66.6836C162.081 66.6836 162.36 66.7238 162.609 66.7923C162.89 66.8703 163.131 66.9842 163.336 67.1179C163.585 67.2805 163.781 67.4742 163.929 67.6671C164.126 67.9213 164.242 68.1779 164.293 68.3632L164.392 68.7266H163.062L162.977 68.5981C162.94 68.5423 162.891 68.4752 162.827 68.4067C162.764 68.3386 162.686 68.2682 162.591 68.2058C162.496 68.1425 162.383 68.0862 162.25 68.0456C162.116 68.005 161.958 67.9799 161.773 67.9799C161.547 67.9799 161.346 68.0248 161.171 68.107C160.988 68.193 160.829 68.3206 160.699 68.4813C160.559 68.6533 160.451 68.8636 160.378 69.1014C160.303 69.3443 160.263 69.6165 160.263 69.9081C160.263 70.2091 160.304 70.4842 160.383 70.7252C160.462 70.9667 160.577 71.1741 160.724 71.3429C160.867 71.5064 161.041 71.6344 161.244 71.7214C161.443 71.8065 161.671 71.8523 161.924 71.8523C162.072 71.8523 162.206 71.8443 162.327 71.831C162.46 71.8164 162.581 71.7942 162.689 71.7677C162.794 71.7413 162.886 71.7115 162.965 71.6789C163.011 71.6604 163.051 71.6411 163.088 71.6212V70.5569H161.212V69.2843H161.499L161.499 69.2847ZM174.319 67.2238L172.152 70.5541V73.0536H170.801V70.564L168.292 66.78H169.943L171.497 69.1675L173.05 66.78H174.606L174.318 67.2233L174.319 67.2238Z" fill="#59E9FF"/>
<path fill-rule="evenodd" clip-rule="evenodd" d="M24.8557 27.0538C12.1724 31.6407 5.60494 45.6516 10.1877 58.3478C14.77 71.0439 28.7666 77.6176 41.4498 73.0311C46.2885 71.2811 50.2372 68.1592 53.0155 64.2617C50.0493 69.2414 45.4094 73.2636 39.5368 75.3875C26.0406 80.2684 11.148 73.2731 6.27156 59.7636C1.39609 46.2542 8.38377 31.3458 21.8795 26.4649C27.752 24.3406 33.889 24.4659 39.3499 26.3974C34.7246 25.1781 29.6943 25.3033 24.8557 27.0533V27.0538Z" fill="#FEFEFE"/>
<path d="M42.7931 30.6498C46.5927 32.4343 49.6274 35.1881 51.7415 38.4787C50.0103 36.5331 47.8655 34.8988 45.36 33.7221C35.4462 29.0661 23.6392 33.336 18.9875 43.2599C14.3363 53.1838 18.6018 65.0033 28.5156 69.6597C31.0206 70.8365 33.6474 71.4428 36.2488 71.5321C32.3699 72.0076 28.314 71.4315 24.5145 69.647C13.757 64.5945 9.128 51.7684 14.1753 41C19.2226 30.2315 32.0357 25.5973 42.7931 30.6503V30.6498Z" fill="#59E9FF"/>
</svg>
