<svg width="25" height="24" viewBox="0 0 25 24" fill="none" xmlns="http://www.w3.org/2000/svg">
<path fill-rule="evenodd" clip-rule="evenodd" d="M2.66602 8C2.66602 5.79086 4.45688 4 6.66602 4H18.666C20.8752 4 22.666 5.79086 22.666 8V16C22.666 18.2091 20.8752 20 18.666 20H6.66602C4.45688 20 2.66602 18.2091 2.66602 16V8ZM6.66602 6C5.56145 6 4.66602 6.89543 4.66602 8V16C4.66602 17.1046 5.56145 18 6.66602 18H18.666C19.7706 18 20.666 17.1046 20.666 16V8C20.666 6.89543 19.7706 6 18.666 6H6.66602Z" fill="white"/>
<path fill-rule="evenodd" clip-rule="evenodd" d="M6.88518 8.37534C7.23019 7.94408 7.85949 7.87416 8.29075 8.21917L12.6661 11.7194L17.0414 8.21917C17.4726 7.87416 18.1019 7.94408 18.4469 8.37534C18.7919 8.8066 18.722 9.4359 18.2907 9.78091L12.6661 14.2807L7.04136 9.78091C6.6101 9.4359 6.54017 8.8066 6.88518 8.37534Z" fill="white"/>
</svg>
