<svg width="28" height="28" viewBox="0 0 28 28" fill="none" xmlns="http://www.w3.org/2000/svg">
<rect x="4.16797" y="12.8906" width="20" height="2.22222" rx="1.11111" fill="white"/>
<g opacity="0.5">
<path fill-rule="evenodd" clip-rule="evenodd" d="M5.43785 5.11328C4.73651 5.11328 4.16797 5.68183 4.16797 6.38316C4.16797 7.0845 4.73651 7.65304 5.43785 7.65304H12.7578C13.4591 7.65304 14.0277 7.0845 14.0277 6.38316C14.0277 5.68183 13.4592 5.11328 12.7578 5.11328H5.43785ZM15.5785 20.3516C14.8771 20.3516 14.3086 20.9201 14.3086 21.6214C14.3086 22.3228 14.8771 22.8913 15.5785 22.8913H22.8984C23.5998 22.8913 24.1683 22.3228 24.1683 21.6214C24.1683 20.9201 23.5998 20.3516 22.8984 20.3516H15.5785Z" fill="white"/>
</g>
</svg>
