<svg width="54" height="54" viewBox="0 0 54 54" fill="none" xmlns="http://www.w3.org/2000/svg">
<path d="M52.6654 26.5C52.6654 40.7674 41.0994 52.3333 26.832 52.3333C12.5647 52.3333 0.998698 40.7674 0.998698 26.5C0.998698 12.2326 12.5647 0.666667 26.832 0.666667C41.0994 0.666667 52.6654 12.2326 52.6654 26.5Z" stroke="#4B5157" stroke-width="1.33333"/>
<path fill-rule="evenodd" clip-rule="evenodd" d="M39.304 19.4872C39.2696 19.4463 39.2128 19.4324 39.1644 19.4547C38.4469 19.776 37.692 20.007 36.9145 20.1435C37.7399 19.5167 38.3549 18.6488 38.6703 17.6536C38.6856 17.6059 38.6698 17.5538 38.6312 17.5228C38.5924 17.4918 38.5386 17.4878 38.496 17.5134C37.5664 18.0699 36.5596 18.4622 35.5021 18.6798C34.5651 17.6982 33.2566 17.1367 31.9025 17.1367C29.1485 17.1367 26.9082 19.3981 26.9082 22.1779C26.9082 22.5141 26.9404 22.8471 27.0043 23.1704C23.1898 22.9327 19.6232 21.0841 17.198 18.0816C17.1732 18.0508 17.1356 18.0337 17.0963 18.0377C17.0572 18.0406 17.0223 18.063 17.0026 18.097C16.5602 18.8632 16.3264 19.7398 16.3264 20.6316C16.3264 22.1771 17.022 23.6222 18.2066 24.5757C17.5967 24.5018 17.0011 24.308 16.4641 24.007C16.4279 23.9864 16.3829 23.9867 16.3468 24.0078C16.3107 24.0286 16.2878 24.0673 16.2868 24.1095L16.2863 24.174C16.2863 26.3937 17.7354 28.3428 19.797 28.9899C19.254 29.0782 18.6906 29.0722 18.1368 28.9656C18.096 28.9579 18.0532 28.972 18.0252 29.0038C17.9974 29.0355 17.9881 29.0799 18.0008 29.1201C18.619 31.0679 20.3368 32.4338 22.3362 32.604C20.6683 33.8375 18.697 34.4873 16.614 34.4873C16.2303 34.4873 15.8439 34.4642 15.4653 34.4193C15.4113 34.4131 15.3577 34.4456 15.339 34.498C15.3203 34.5508 15.3402 34.6099 15.3869 34.6399C17.641 36.0991 20.2473 36.8701 22.9244 36.8701C31.6813 36.8701 36.914 29.6898 36.914 22.7483C36.914 22.555 36.9103 22.3627 36.9027 22.1709C37.8473 21.4734 38.6583 20.6196 39.3121 19.6314C39.3414 19.5872 39.3382 19.5284 39.304 19.4872Z" fill="white"/>
</svg>
