<svg width="108" height="63" viewBox="0 0 108 63" fill="none" xmlns="http://www.w3.org/2000/svg">
<path fill-rule="evenodd" clip-rule="evenodd" d="M30.9304 19.8113C30.931 20.7712 30.7859 21.6052 30.4958 22.3114C30.2033 23.0241 29.7641 23.6061 29.178 24.0563L29.1698 24.0628C28.6583 24.4494 28.0273 24.7387 27.2769 24.9306C26.53 25.1218 25.6631 25.2175 24.6768 25.2175H23.9765C22.9901 25.2175 22.1232 25.1218 21.3757 24.9306C20.6213 24.7375 19.988 24.4459 19.4753 24.0563C18.8886 23.6061 18.4488 23.0241 18.1563 22.3114C17.8661 21.6052 17.7205 20.7712 17.7205 19.8113L17.7188 13.3827C17.7188 13.2958 17.7898 13.2246 17.8766 13.2246H19.9088C19.9961 13.2246 20.0666 13.2958 20.0666 13.3827L20.0684 19.8113C20.069 20.4872 20.1837 21.0459 20.4133 21.4868C20.6388 21.9189 20.9772 22.242 21.4276 22.4543C21.7271 22.5902 22.1454 22.6934 22.6808 22.7622C23.2226 22.8316 23.8885 22.8666 24.6762 22.8666C25.9661 22.8666 26.9058 22.6759 27.4937 22.2945C27.8549 22.0607 28.1264 21.7399 28.3064 21.3328C28.4905 20.9182 28.5825 20.4108 28.5825 19.8107L28.5808 13.3821C28.5808 13.2952 28.6513 13.2241 28.7387 13.2241H30.7708C30.8582 13.2241 30.9287 13.2952 30.9287 13.3821L30.9304 19.8107V19.8113ZM44.4095 25.2181H34.3503C34.2629 25.2181 34.1924 25.1469 34.1924 25.06L34.1889 13.3833C34.1889 13.2964 34.26 13.2252 34.3468 13.2252H36.3789C36.4663 13.2252 36.5368 13.2964 36.5368 13.3833L36.5392 22.8678H44.4084C44.4958 22.8678 44.5662 22.9389 44.5662 23.0258L44.5668 25.06C44.5668 25.1475 44.4963 25.2181 44.4089 25.2181H44.4095ZM54.1308 15.5761H49.6949L49.6972 25.06C49.6972 25.1475 49.6267 25.2181 49.5393 25.2181H47.5241C47.4367 25.2181 47.3662 25.1469 47.3662 25.06L47.3639 15.5761H42.9105C42.8231 15.5761 42.7526 15.5055 42.7526 15.418L42.752 13.3833C42.752 13.2964 42.8231 13.2252 42.9099 13.2252H54.1308C54.2176 13.2252 54.2887 13.2964 54.2887 13.3833L54.2893 15.418C54.2899 15.5055 54.2188 15.5761 54.1314 15.5761H54.1308ZM70.8259 25.2181L67.8377 25.2187C67.7894 25.2187 67.7468 25.1971 67.7177 25.1633L64.5099 21.9359H60.1852C60.0984 21.9359 60.0274 21.8647 60.0274 21.7778L60.0268 19.7436C60.0268 19.6561 60.0973 19.5856 60.1847 19.5856H65.6501C66.0136 19.5856 66.3463 19.5459 66.6481 19.4672C66.9464 19.3896 67.2173 19.273 67.4585 19.119C67.7265 18.9394 67.9269 18.7242 68.0591 18.4734C68.192 18.2221 68.2584 17.9299 68.2578 17.598C68.2578 16.9221 68.0475 16.4188 67.6262 16.087C67.194 15.7464 66.5345 15.5761 65.6489 15.5761H59.1459L59.1482 25.06C59.1482 25.1475 59.0777 25.2181 58.9903 25.2181H56.9582C56.8714 25.2181 56.8003 25.1469 56.8003 25.06L56.7974 13.3833C56.7974 13.2964 56.8679 13.2252 56.9553 13.2252H65.3238C66.0882 13.2252 66.7809 13.3086 67.4014 13.4748C68.0253 13.6428 68.5759 13.8947 69.0525 14.2318L69.0612 14.2382C69.6083 14.6226 70.0207 15.099 70.2952 15.6653C70.5701 16.2328 70.7088 16.8883 70.7088 17.6313C70.7094 18.141 70.6284 18.6163 70.467 19.0566C70.3062 19.4958 70.0644 19.9011 69.7428 20.2708C69.4451 20.6143 69.095 20.9065 68.6918 21.1456C68.3603 21.3427 67.9933 21.5049 67.5907 21.632L70.9372 24.9486C70.9984 25.0099 70.9989 25.1096 70.9378 25.1714C70.9069 25.2023 70.8661 25.2175 70.8259 25.2181ZM89.3626 25.2175L86.7409 25.2006C86.6838 25.2 86.6342 25.1697 86.6069 25.1242L84.6994 21.9359H79.2521C79.1653 21.9359 79.0942 21.8647 79.0942 21.7778C79.0942 21.7451 79.1041 21.7148 79.1216 21.6892L80.3439 19.662C80.3736 19.613 80.4254 19.5862 80.4785 19.5862L83.279 19.5856L81.5359 16.6947L76.4131 25.1417C76.3834 25.1907 76.3321 25.2175 76.2785 25.2175L73.6684 25.2181C73.581 25.2181 73.5105 25.1469 73.5105 25.06C73.5105 25.0262 73.5216 24.9941 73.5402 24.9679L79.8656 14.4155C79.9495 14.2709 80.0508 14.1315 80.1697 13.9974C80.2856 13.8662 80.4196 13.7402 80.5694 13.62L80.5717 13.6177C80.7523 13.4783 80.9259 13.3734 81.0919 13.3028C81.2661 13.2287 81.4322 13.1914 81.5895 13.1914C81.7579 13.1914 81.9286 13.227 82.1016 13.2975C82.2688 13.3658 82.4383 13.4672 82.6096 13.602L82.6201 13.6107C82.7611 13.7233 82.8887 13.8463 83.0029 13.9781C83.1212 14.114 83.2249 14.2604 83.3152 14.4167L89.5001 24.9819C89.5438 25.0565 89.5193 25.1533 89.4441 25.1971C89.4191 25.2122 89.3917 25.2187 89.3637 25.2187L89.3626 25.2175Z" fill="#59E9FF"/>
<path fill-rule="evenodd" clip-rule="evenodd" d="M15.6267 42.2239H9.0346C8.1671 42.2239 7.37185 42.0793 6.65117 41.7888C5.92933 41.499 5.28264 41.0639 4.71227 40.4837C4.1419 39.904 3.71369 39.2479 3.42821 38.5154L3.42472 38.5072C3.14216 37.7782 3 36.9751 3 36.0992C2.99942 34.3443 3.56513 32.9272 4.69596 31.8471C5.2605 31.3082 5.90544 30.9041 6.6302 30.634C7.35321 30.3646 8.1537 30.2305 9.0311 30.2305H15.6233C15.7101 30.2305 15.7811 30.3016 15.7811 30.3885L15.7817 32.4227C15.7817 32.5102 15.7106 32.5808 15.6238 32.5808H9.03169C8.49278 32.5808 8.00339 32.6671 7.56236 32.8385C7.12308 33.01 6.72982 33.2678 6.38434 33.6113C6.03886 33.9542 5.7796 34.3467 5.60715 34.7876C5.43411 35.2302 5.34731 35.7248 5.34789 36.2689C5.34789 36.8083 5.4347 37.2947 5.60773 37.728C5.7796 38.1596 6.03886 38.5416 6.38434 38.8734C6.72982 39.2059 7.12308 39.4555 7.56294 39.6211C8.00397 39.7879 8.49453 39.8719 9.03402 39.8719H15.6262C15.7136 39.8719 15.7841 39.943 15.7841 40.0299L15.7846 42.0641C15.7846 42.1516 15.7136 42.2222 15.6267 42.2222V42.2239ZM4.34989 48.3294H4.7915V45.5055H6.13382V45.0956H3.00816V45.5055H4.34989V48.3294ZM102.206 48.3294H102.648V45.5055H103.99V45.0956H100.864V45.5055H102.207V48.3294H102.206ZM94.0183 45.4461C94.6323 45.4461 94.9009 45.7056 95.0104 45.9196H95.4701C95.3652 45.5143 94.9831 45.0407 94.0189 45.0407C93.2772 45.0407 92.7948 45.3965 92.7948 45.9249C92.7948 46.4894 93.2358 46.767 93.8138 46.8312C94.055 46.8586 94.2099 46.8726 94.4511 46.8994C94.838 46.9449 95.1066 47.0679 95.1066 47.4458C95.1066 47.7555 94.7931 47.9836 94.2332 47.9836C93.5464 47.9836 93.2597 47.6506 93.1549 47.405H92.6812C92.8268 47.8786 93.2318 48.3889 94.2332 48.3889C95.1206 48.3889 95.5482 47.9468 95.5482 47.4231C95.5482 46.7489 95.0337 46.5262 94.4878 46.462C94.2467 46.4346 94.0783 46.4165 93.8551 46.3897C93.4596 46.3395 93.2364 46.1891 93.2364 45.9249C93.2364 45.6379 93.5003 45.4466 94.0189 45.4466L94.0183 45.4461ZM85.5758 48.3842C86.5266 48.3842 87.2455 47.6552 87.2455 46.7128C87.2455 45.7697 86.5266 45.0407 85.5758 45.0407C84.6203 45.0407 83.906 45.7697 83.906 46.7128C83.906 47.6646 84.611 48.3842 85.5758 48.3842ZM85.5758 47.9742C84.8475 47.9742 84.361 47.4184 84.361 46.7128C84.361 46.0205 84.8475 45.4507 85.5758 45.4507C86.304 45.4507 86.7905 46.0246 86.7905 46.7128C86.7905 47.4097 86.304 47.9742 85.5758 47.9742ZM75.5538 48.33H75.9955V46.8906H77.2148L77.988 48.33H78.4564L77.6739 46.8451C78.1016 46.7361 78.3334 46.4398 78.3334 46.0118C78.3334 45.4105 77.9652 45.0961 77.269 45.0961H75.5538V48.33ZM77.2556 45.5061C77.6699 45.5061 77.879 45.6613 77.879 46.0118C77.879 46.3395 77.6693 46.4853 77.2556 46.4853H75.9955V45.5061H77.2556ZM67.3753 48.33H67.8169V46.8224H69.0864V46.4078H67.8169V45.5102H69.9964V45.0956H67.3753V48.3294V48.33ZM57.5951 48.3848C58.5465 48.3848 59.2649 47.6558 59.2649 46.7134C59.2649 45.7703 58.5465 45.0413 57.5951 45.0413C56.6396 45.0413 55.9254 45.7703 55.9254 46.7134C55.9254 47.6651 56.6309 48.3848 57.5951 48.3848ZM57.5951 47.9748C56.8669 47.9748 56.3804 47.419 56.3804 46.7134C56.3804 46.0211 56.8669 45.4513 57.5951 45.4513C58.3234 45.4513 58.8104 46.0252 58.8104 46.7134C58.8104 47.4103 58.3234 47.9748 57.5951 47.9748ZM50.2258 45.0961H49.8028V47.5736L47.8511 45.0961H47.3139V48.33H47.7375V45.6152L49.9123 48.3527H50.2258V45.0961ZM36.8143 48.33H39.3445V47.9153H37.2559V45.0961H36.8143V48.33ZM30.8152 48.33H31.279L29.7822 45.0781H29.4315L27.9395 48.33H28.3764L28.7359 47.5508H30.4557L30.8152 48.33ZM28.9177 47.1502L29.5958 45.6747L30.274 47.1502H28.9182H28.9177ZM21.3025 48.33H21.7441V45.5061H23.0864V45.0961H19.9607V45.5061H21.303V48.33H21.3025ZM13.0464 48.3848C13.9972 48.3848 14.7161 47.6558 14.7161 46.7134C14.7161 45.7703 13.9972 45.0413 13.0464 45.0413C12.0909 45.0413 11.3767 45.7703 11.3767 46.7134C11.3767 47.6651 12.0816 48.3848 13.0464 48.3848ZM13.0464 47.9748C12.3181 47.9748 11.8317 47.419 11.8317 46.7134C11.8317 46.0211 12.3181 45.4513 13.0464 45.4513C13.7747 45.4513 14.2611 46.0252 14.2611 46.7134C14.2611 47.4103 13.7747 47.9748 13.0464 47.9748ZM34.0964 36.1003C34.097 36.9798 33.9548 37.7852 33.6717 38.5165C33.3886 39.249 32.9627 39.9051 32.3952 40.4848C31.8278 41.0645 31.1822 41.4996 30.4592 41.79C29.7368 42.0799 28.9386 42.2251 28.0653 42.2251H24.8033C23.9358 42.2251 23.1412 42.0804 22.4199 41.79C21.6981 41.5002 21.0514 41.0651 20.481 40.4848C19.9106 39.9051 19.4824 39.249 19.1969 38.5165L19.194 38.5084C18.9115 37.7794 18.7693 36.9763 18.7693 36.1003C18.7687 34.3455 19.3344 32.9283 20.4653 31.8483C21.0298 31.3094 21.6747 30.9052 22.3995 30.6352C23.1225 30.3658 23.923 30.2316 24.8004 30.2316H28.0624C29.8347 30.2316 31.2836 30.7705 32.4075 31.8488C33.533 32.9283 34.0964 34.3455 34.0964 36.0998V36.1003ZM31.7654 36.2712C31.7654 35.7265 31.6786 35.2325 31.505 34.7899C31.3326 34.349 31.0727 33.9571 30.7272 33.6136C30.3812 33.2707 29.9867 33.0129 29.5451 32.8409C29.1018 32.6688 28.6071 32.5831 28.0624 32.5831H24.801C24.2621 32.5831 23.7727 32.6694 23.3323 32.8409C22.893 33.0123 22.4997 33.2701 22.1542 33.6136C21.8087 33.9565 21.5495 34.349 21.377 34.7899C21.2034 35.2325 21.1172 35.7271 21.1172 36.2712C21.1178 36.8107 21.204 37.2971 21.377 37.7304C21.5489 38.1619 21.8087 38.5439 22.1536 38.8758C22.4991 39.2082 22.8924 39.4578 23.3323 39.6234C23.7739 39.7902 24.2638 39.8742 24.8033 39.8742H28.0647C28.6106 39.8742 29.1053 39.7908 29.5492 39.6234C29.9908 39.4578 30.3852 39.2076 30.7307 38.8758C31.0762 38.5439 31.3349 38.1614 31.5068 37.7304C31.6792 37.2971 31.766 36.8107 31.766 36.2712H31.7654ZM52.1548 36.1003C52.1554 36.9798 52.0138 37.7852 51.7306 38.5165C51.4469 39.249 51.021 39.9051 50.4542 40.4848C49.8867 41.0645 49.2412 41.4996 48.5182 41.79C47.7957 42.0799 46.9976 42.2251 46.1237 42.2251H42.8623C41.9942 42.2251 41.1995 42.0804 40.4788 41.79C39.757 41.5002 39.1103 41.0651 38.5393 40.4848C37.969 39.9051 37.5408 39.249 37.2553 38.5165L37.2524 38.5084C36.9692 37.7794 36.8277 36.9763 36.8271 36.1003C36.8265 34.3455 37.3922 32.9283 38.5236 31.8483C39.0882 31.3094 39.7331 30.9052 40.4579 30.6352C41.1809 30.3658 41.9814 30.2316 42.8588 30.2316H46.1208C47.8936 30.2316 49.342 30.7705 50.4658 31.8488C51.5914 32.9283 52.1548 34.3455 52.1548 36.0998V36.1003ZM49.8238 36.2712C49.8238 35.7265 49.737 35.2325 49.5634 34.7899C49.3909 34.349 49.1311 33.9571 48.7856 33.6136C48.4401 33.2707 48.0451 33.0129 47.6035 32.8409C47.1601 32.6688 46.6661 32.5831 46.1208 32.5831H42.8588C42.3204 32.5831 41.8305 32.6694 41.39 32.8409C40.9507 33.0123 40.5575 33.2701 40.212 33.6136C39.8665 33.9565 39.6073 34.349 39.4348 34.7899C39.2612 35.2325 39.175 35.7271 39.175 36.2712C39.1755 36.8107 39.2618 37.2971 39.4348 37.7304C39.6073 38.1619 39.8665 38.5439 40.2114 38.8758C40.5569 39.2082 40.9502 39.4578 41.3894 39.6234C41.8311 39.7902 42.321 39.8742 42.8605 39.8742H46.1219C46.6678 39.8742 47.1624 39.7908 47.6064 39.6234C48.048 39.4578 48.4418 39.2076 48.7879 38.8758C49.1334 38.5439 49.3921 38.1614 49.5639 37.7304C49.7364 37.2971 49.8226 36.8107 49.8226 36.2712H49.8238ZM64.8654 42.2245H54.8062C54.7188 42.2245 54.6483 42.1539 54.6483 42.0664L54.6448 30.3897C54.6448 30.3028 54.7159 30.2316 54.8027 30.2316H56.8348C56.9222 30.2316 56.9927 30.3028 56.9927 30.3897L56.9956 39.8742H64.8643C64.9516 39.8742 65.0221 39.9454 65.0221 40.0323L65.0227 42.0664C65.0227 42.1539 64.9516 42.2245 64.8648 42.2245H64.8654ZM70.4054 42.2245H68.3733C68.2859 42.2245 68.2154 42.1539 68.2154 42.0664L68.2125 30.3897C68.2125 30.3028 68.283 30.2316 68.3704 30.2316H70.4025C70.4893 30.2316 70.5604 30.3028 70.5604 30.3897L70.5639 42.0664C70.5639 42.1539 70.4928 42.2245 70.406 42.2245H70.4054ZM86.6064 41.0575C86.607 41.4657 86.5336 41.7778 86.3868 41.993C86.2271 42.2268 85.9912 42.344 85.6783 42.344C85.4639 42.344 85.239 42.2799 85.0042 42.151C84.7811 42.0285 84.5463 41.846 84.301 41.6034L77.0925 34.3484L77.0942 42.0664C77.0948 42.1539 77.0238 42.2245 76.9364 42.2245H74.9211C74.8343 42.2245 74.7633 42.1539 74.7633 42.0664L74.7603 31.3986C74.7603 31.2464 74.7813 31.1029 74.8233 30.9694C74.8658 30.8347 74.9293 30.7093 75.0138 30.595C75.1932 30.3529 75.4461 30.2316 75.7723 30.2316C76.1912 30.2316 76.6159 30.4468 77.0453 30.8761L84.2579 38.1118L84.2556 30.3897C84.2556 30.3028 84.3267 30.2316 84.4135 30.2316H86.4456C86.533 30.2316 86.6035 30.3028 86.6035 30.3897L86.6064 41.0575ZM103.842 42.2245H96.4297C95.5622 42.2245 94.7669 42.0799 94.0462 41.7894C93.3244 41.4996 92.6777 41.0645 92.1073 40.4842C91.537 39.9045 91.1087 39.2484 90.8233 38.5159L90.8204 38.5078C90.5372 37.7788 90.3956 36.9757 90.3956 36.0998C90.3951 34.3449 90.9608 32.9278 92.0916 31.8477C92.6561 31.3088 93.3011 30.9046 94.0258 30.6346C94.7489 30.3652 95.5493 30.2311 96.4268 30.2311H103.002C103.089 30.2311 103.16 30.3022 103.16 30.3891L103.16 32.4233C103.16 32.5108 103.09 32.5813 103.003 32.5813H96.4273C95.8884 32.5813 95.3985 32.6676 94.958 32.8391C94.5187 33.0106 94.126 33.2683 93.78 33.6118C93.4345 33.9548 93.1752 34.3472 93.0034 34.7881C92.8298 35.2308 92.7435 35.7253 92.7435 36.2695C92.7441 36.8089 92.8303 37.2953 93.0034 37.7286C93.1752 38.1602 93.4345 38.5422 93.78 38.874C94.1255 39.2064 94.5187 39.4561 94.9586 39.6217C95.3996 39.7885 95.8902 39.8725 96.4297 39.8725H101.652L101.651 37.6412H96.2753C96.1879 37.6412 96.1174 37.5706 96.1174 37.4831L96.1168 35.6198C96.1162 35.5329 96.1873 35.4617 96.2747 35.4617H103.84C103.927 35.4617 103.998 35.5329 103.998 35.6198L104 42.0653C104 42.1528 103.929 42.2233 103.842 42.2233L103.842 42.2245Z" fill="#FEFEFE"/>
</svg>
