<svg width="70" height="70" viewBox="0 0 70 70" fill="none" xmlns="http://www.w3.org/2000/svg">
<rect width="70" height="70" rx="35" fill="#057D45"/>
<path fill-rule="evenodd" clip-rule="evenodd" d="M26.2188 34.3728C25.3646 33.5316 25.3646 32.1679 26.2188 31.3268L32.7813 24.8652C33.1916 24.4613 33.748 24.2344 34.3281 24.2344C34.9083 24.2344 35.4647 24.4613 35.8749 24.8652L42.4374 31.3268C43.2917 32.1679 43.2917 33.5316 42.4374 34.3728C41.5832 35.2139 40.1981 35.2139 39.3438 34.3728L36.5156 31.5881L36.5156 43.619C36.5156 44.8085 35.5362 45.7728 34.3281 45.7728C33.12 45.7728 32.1406 44.8085 32.1406 43.619L32.1406 31.5881L29.3124 34.3728C28.4581 35.2139 27.0731 35.2139 26.2188 34.3728Z" fill="white"/>
</svg>
