<svg width="28" height="28" viewBox="0 0 28 28" fill="none" xmlns="http://www.w3.org/2000/svg">
<g clip-path="url(#clip0_9214_9528)">
<path fill-rule="evenodd" clip-rule="evenodd" d="M5.72446 3.15836C7.17508 1.70773 9.57419 1.87824 10.8051 3.51943L12.8483 6.24369C13.8549 7.5858 13.7214 9.46383 12.5351 10.6501L11.0287 12.1565C11.1747 12.5365 11.6553 13.3704 13.1188 14.8339C14.5823 16.2974 15.4162 16.778 15.7962 16.924L17.3026 15.4176C18.4889 14.2313 20.3669 14.0978 21.709 15.1044L24.4333 17.1476C26.0745 18.3785 26.245 20.7776 24.7943 22.2282C24.3227 22.6999 24.2429 22.7797 23.4559 23.5667C22.6538 24.3688 20.9506 25.1185 19.2263 25.1935C16.5279 25.3108 12.8627 24.1127 8.35135 19.6013C3.84004 15.09 2.64188 11.4248 2.7592 8.72641C2.82446 7.22536 3.30169 5.57674 4.39229 4.50308C5.17303 3.70978 5.27457 3.60824 5.72446 3.15836ZM5.00449 8.82403C4.92316 10.6945 5.71145 13.7831 9.94051 18.0122C14.1696 22.2413 17.2582 23.0295 19.1287 22.9482C20.8747 22.8723 21.8114 22.0286 21.8667 21.9775L23.2052 20.6391C23.6887 20.1555 23.6319 19.3558 23.0848 18.9455L20.3606 16.9023C19.9132 16.5668 19.2872 16.6113 18.8918 17.0067C18.296 17.6025 17.8893 18.0152 17.0932 18.8083C15.4395 20.4557 12.6089 17.5022 11.5297 16.423C10.5379 15.4313 7.51552 12.5107 9.14281 10.8641C9.14603 10.8609 9.58433 10.4226 10.946 9.06094C11.3414 8.66552 11.3859 8.03951 11.0504 7.59214L9.00716 4.86787C8.59686 4.32081 7.79715 4.26397 7.31361 4.74751C6.86857 5.19256 6.3649 5.69622 5.97651 6.08731C5.17714 6.8922 5.04727 7.84011 5.00449 8.82403Z" fill="white"/>
</g>
<defs>
<clipPath id="clip0_9214_9528">
<rect width="26.9689" height="26.9689" fill="white" transform="translate(0.5 0.515625)"/>
</clipPath>
</defs>
</svg>
